<?xml version="1.0" standalone="no"?>
<!DOCTYPE svg PUBLIC "-//W3C//DTD SVG 1.1//EN" "http://www.w3.org/Graphics/SVG/1.1/DTD/svg11.dtd" >
<svg xmlns="http://www.w3.org/2000/svg" xmlns:xlink="http://www.w3.org/1999/xlink" version="1.1">
<metadata></metadata>
<defs>
<font id="milky_coffeeregular" horiz-adv-x="622" >
<font-face units-per-em="2048" ascent="1638" descent="-410" />
<missing-glyph horiz-adv-x="606" />
<glyph horiz-adv-x="0" />
<glyph unicode="&#xd;" horiz-adv-x="708" />
<glyph horiz-adv-x="0" />
<glyph horiz-adv-x="0" />
<glyph unicode=" "  horiz-adv-x="606" />
<glyph unicode="&#x09;" horiz-adv-x="606" />
<glyph unicode="&#xa0;" horiz-adv-x="606" />
<glyph unicode="!" horiz-adv-x="460" d="M60 1258.5q1 78.5 12 158.5q4 49 48 88t99 43q63 6 102 -7t58.5 -40.5t27 -65.5t7.5 -79q4 -104 0 -221t-12.5 -233t-19.5 -225.5t-20 -201.5q-6 -31 -13 -58.5t-22.5 -48t-41 -31.5t-66.5 -9q-53 4 -85 31.5t-36 72.5q-8 86 -13 168t-9 162q-2 88 -6 172t-7.5 165 t-2.5 159.5zM63 97.5q0 31.5 19 66.5q35 53 91 75.5t116 0.5q37 -12 59.5 -38t28.5 -56.5t-6.5 -61.5t-44.5 -53q-29 -23 -62 -35t-64.5 -13t-61.5 11t-50 41q-25 31 -25 62.5z" />
<glyph unicode="&#x22;" horiz-adv-x="561" d="M57 1362q8 35 35 55.5t62 18.5q33 0 59.5 -21.5t32.5 -56.5q4 -35 6 -65.5t2 -61.5q-2 -70 -72 -90q-33 -10 -62.5 5t-43.5 44q-35 84 -19 172zM299 1362q8 35 34.5 55.5t61.5 18.5q33 0 59.5 -21.5t32.5 -56.5q4 -35 6.5 -65.5t2.5 -61.5q-2 -70 -72 -90 q-33 -10 -62.5 5t-44.5 44q-35 84 -18 172z" />
<glyph unicode="#" horiz-adv-x="1441" d="M53 854q4 35 31 59.5t63 26.5q72 6 142.5 13.5t140.5 11.5q51 2 66 49q16 47 33.5 89t35.5 87q6 16 15.5 31.5t21.5 29.5q27 31 65 40t72 -7q35 -16 51.5 -47t8.5 -72t-16.5 -84t-18.5 -86h178q14 41 29.5 80t29.5 80q4 10 8.5 21.5t8.5 21.5q16 35 51 50.5t74 6.5 q35 -10 58.5 -36.5t21.5 -65.5q0 -47 -4.5 -92t-8.5 -94q35 -23 56.5 -49.5t11.5 -67.5q-8 -43 -37 -59.5t-70 -26.5q-10 -35 -18 -71t-18 -77q16 -4 27.5 -5t23.5 -3q27 -4 55.5 -8t56.5 -10q47 -14 70 -47t14 -74q-6 -41 -41.5 -65.5t-83.5 -22.5q-35 4 -67.5 5t-67.5 3 h-47q-8 -39 -18 -76t-21 -71q-10 -35 -19 -71t-24 -71q-16 -41 -45 -73q-31 -35 -75 -41t-82 16q-76 39 -60 135q12 59 23.5 118.5t25.5 123.5q-51 2 -100 0t-102 -12q-12 -47 -25.5 -92.5t-28.5 -92.5q-4 -18 -10 -37.5t-16 -35.5q-20 -45 -60.5 -62.5t-87.5 -3.5 q-45 12 -66.5 47t-17.5 84q6 41 14.5 80t14.5 82q-14 -2 -25.5 -3t-25.5 -1q-16 0 -30.5 1t-31.5 5q-29 10 -49 29.5t-24 50.5q-12 61 41 100q31 23 71 35q23 6 45.5 13t44.5 7q59 0 66 62q6 27 15 53.5t18 56.5q-35 -2 -67 -3t-60 -3q-29 0 -55.5 -1t-53.5 -1 q-12 0 -23.5 2t-23.5 6q-37 14 -57.5 44t-16.5 65zM649 608q53 4 98.5 6t92.5 7q8 39 17 76.5t20 78.5h-177q-12 -43 -24 -84t-27 -84z" />
<glyph unicode="$" horiz-adv-x="847" d="M54 284q-5 48 9.5 94t45 76.5t67.5 24.5q33 -6 71 -19.5t72 -19.5q39 -6 73 9.5t46.5 42t-3 58.5t-75.5 56q-35 14 -71.5 29.5t-71.5 36.5q-66 41 -102.5 95t-48.5 114q-12 61 -3 122.5t36.5 114.5t69.5 95t97 69q39 14 45 53q4 27 5 52.5t6 52.5q6 45 38.5 69.5 t79.5 22.5t77 -30.5t28 -71.5q0 -31 -4.5 -60.5t-8.5 -64.5q29 -12 60 -21.5t59 -23.5q106 -55 152 -158q25 -55 8.5 -106.5t-53.5 -82t-83 -35t-83 32.5q-18 20 -37.5 50t-42.5 51.5t-50.5 26.5t-66.5 -25q-66 -55 -31 -106.5t140 -86.5q43 -18 91 -42.5t87 -59.5t63.5 -86 t22.5 -125q-2 -53 -27.5 -103.5t-64.5 -92.5t-87 -70.5t-95 -36.5q0 -29 3 -50.5t-1 -56.5q-4 -57 -44 -86.5t-90 -13.5q-70 16 -75 74q-4 20 -3 42.5t1 49.5q-57 -2 -104.5 4t-88.5 39q-33 29 -38 77z" />
<glyph unicode="%" horiz-adv-x="1130" d="M43 944q-8 68 3 134.5t41 127t76 109.5t105 82q53 29 111.5 35t109.5 -27q45 -31 74 -52.5t53.5 -46t48 -55t56.5 -80.5q25 45 45 78t39.5 60.5t42 50t53.5 47.5q39 31 84 20.5t75 -41t37 -72.5t-30 -75q-43 -37 -88 -96.5t-89 -127t-85 -133t-78 -112.5q-4 -8 -8 -14 t-8 -17q27 6 48 10.5t44 8.5q43 4 76.5 -7.5t56.5 -48.5q12 -18 25 -28q82 -66 106.5 -155t6 -180t-73 -171t-130.5 -129q-63 -41 -131.5 -51.5t-140.5 14.5q-129 41 -178 166q-8 12 -14 39q-4 -8 -19.5 -34t-33 -54.5t-33 -53t-19.5 -30.5q-23 -31 -51.5 -48.5t-65.5 -15.5 q-55 2 -89 40t-27 91q4 35 18 66q20 41 52 99.5t66 121t65.5 119.5t54.5 98l24 49q-18 4 -34.5 5.5t-32.5 5.5q-94 25 -159 99.5t-79 178.5zM333 1045.5q-3 -52.5 3 -97.5q16 -61 65 -26q23 16 43.5 36.5t40.5 42.5q45 63 -8 121q-49 53 -79.5 49t-46 -38.5t-18.5 -87z M682 299q-2 -37 17.5 -49t54.5 4q55 29 72.5 85t-13.5 112q-20 31 -30.5 44t-19.5 10t-18.5 -20.5t-25.5 -50.5q-35 -66 -37 -135z" />
<glyph unicode="&#x26;" horiz-adv-x="1370" d="M41 489.5q14 90.5 53 175.5t97.5 156.5t127.5 120.5q-2 18 -8 35q-53 170 62 297q59 66 136 98.5t165 42.5q84 8 164 -3t157 -48q41 -20 76 -45t64 -62q41 -51 51 -112.5t-5.5 -118.5t-55.5 -104.5t-101 -69.5q-29 -8 -58.5 -9t-58.5 1q-31 2 -52 25.5t-26 52.5 q-4 29 11.5 55.5t46.5 38.5q23 10 38 23.5t19 37.5q4 25 -5 49.5t-29.5 43t-49.5 29.5t-63 11q-68 -2 -119 -29.5t-75.5 -64.5t-17.5 -70.5t58 -48.5q27 -6 49.5 -8t39 -7t28.5 -17.5t16 -38.5q6 -41 -5 -74t-32.5 -57.5t-52.5 -43t-61 -32.5q-119 -57 -168 -129t-43 -132.5 t59 -99.5t137 -32q104 6 171 57t116 131q35 57 71 112.5t58 71.5q47 33 104 45q53 10 95.5 -11t79.5 -56q27 -25 26.5 -59.5t-24.5 -69.5q-27 -37 -43.5 -80t-26.5 -86q-4 -16 -4 -49t3 -69t9 -68.5t15 -49.5q16 -41 5.5 -71.5t-42.5 -53.5q-31 -20 -69 -16t-64 35 q-10 10 -20.5 37.5t-21 59.5t-20.5 61t-18 43q-45 -59 -126 -115.5t-182.5 -91.5t-214 -37t-219.5 47q-98 47 -152.5 117.5t-71.5 154.5t-3 174.5z" />
<glyph unicode="'" horiz-adv-x="311" d="M57 1362q8 35 35 55.5t62 18.5q33 0 59.5 -21.5t32.5 -56.5q4 -35 6 -65.5t2 -61.5q-2 -70 -72 -90q-33 -10 -62.5 5t-43.5 44q-35 84 -19 172z" />
<glyph unicode="(" horiz-adv-x="942" d="M59 657.5q0 159.5 47.5 310t138.5 281.5t218 215q63 51 147 80t162 8q53 -14 80 -40.5t31 -58.5t-10.5 -65.5t-41.5 -60.5q-16 -16 -36.5 -26.5t-42.5 -12.5q-45 -2 -88 -33q-82 -57 -133.5 -155.5t-72 -212t-11 -232t48.5 -219t107.5 -170t168.5 -86.5q70 -4 106.5 -53 t20.5 -111q-10 -45 -48 -73.5t-87 -32.5q-102 -6 -203 27q-174 55 -284.5 166.5t-164 253t-53.5 301z" />
<glyph unicode=")" horiz-adv-x="942" d="M51 1468q10 45 48 74t87 33q102 6 203 -27q174 -57 284.5 -167.5t164 -252t53.5 -301t-47 -310t-138.5 -282t-218.5 -215.5q-33 -25 -70.5 -46t-77.5 -33.5t-81 -15.5t-80 7q-53 14 -79.5 41t-31 58.5t9 64.5t42.5 62q16 16 36.5 26.5t43.5 12.5q45 2 88 32 q82 57 133 155.5t71.5 212.5t11.5 232.5t-48 219t-109 170t-168 86.5q-70 4 -106.5 53t-20.5 110z" />
<glyph unicode="*" horiz-adv-x="671" d="M47 1269.5q-12 30.5 8 69.5q14 27 32.5 37t38 10t39 -6t36.5 -12l45 -18q-2 10 -3 21.5t-1 21.5l-9 53q2 31 24 56.5t65 25.5q31 0 49 -12.5t27.5 -30t12.5 -38t5 -36.5t2 -33.5v-34.5l57 25q14 6 33.5 12t40 6t39 -10t33.5 -37q20 -39 7.5 -69.5t-38.5 -44.5 q-14 -6 -28.5 -10.5t-24.5 -8.5l-64 -26q18 -16 34.5 -35t31.5 -37q10 -12 21 -29.5t17.5 -37t1 -40t-27.5 -40.5q-33 -31 -64.5 -28t-54.5 23q-10 12 -16 24.5t-15 23.5l-59 71q-16 -16 -29.5 -34.5t-29.5 -36.5q-8 -10 -14.5 -22.5t-16.5 -25.5q-23 -20 -54.5 -23 t-64.5 28q-23 20 -28 40.5t1.5 40t17.5 37t21 29.5q12 18 28.5 35.5t33.5 34.5q-16 8 -33.5 14t-34.5 14q-10 4 -24.5 8.5t-28.5 10.5q-27 14 -39 44.5z" />
<glyph unicode="+" horiz-adv-x="718" d="M51 724q-4 24 4 48.5t31 42.5q20 16 45 25.5t47 17.5q23 8 45.5 12t46.5 9v53q0 47 26 77.5t69 37.5q41 6 72.5 -20t43.5 -73q4 -16 6.5 -32t6.5 -39q20 -4 38.5 -6.5t34.5 -6.5t31.5 -10t32.5 -16q27 -16 38 -43t5 -56q-8 -29 -30.5 -48t-55.5 -23q-23 -4 -44.5 -3 t-47.5 1q-2 -12 -2 -22.5t-5 -24.5q-4 -25 -8 -51.5t-12 -55.5q-12 -53 -66 -74q-27 -12 -52 -9t-44.5 17.5t-31 37t-9.5 51.5q0 27 1 52t3 52q0 4 -2 8t-2 13q-23 -4 -44 -9.5t-44 -7.5q-35 -4 -61 2q-29 10 -45.5 29.5t-20.5 43.5z" />
<glyph unicode="," horiz-adv-x="415" d="M63 35q12 57 19.5 109.5t11.5 111.5q6 66 48 96.5t90.5 26.5t88 -42t39.5 -106q0 -41 -6 -89t-22.5 -93t-45 -79t-73.5 -46q-31 -12 -60.5 -7t-51 20.5t-33 41t-5.5 56.5z" />
<glyph unicode="-" d="M49 602q0 39 20.5 61.5t50.5 35t63.5 16.5t62.5 6q55 4 110.5 3t108.5 -11q51 -8 86 -38t29 -83q-8 -31 -35 -51.5t-64 -22.5q-51 -4 -100 -6t-102 -6q-23 -2 -46.5 -5t-46.5 -5q-51 0 -94 26.5t-43 79.5z" />
<glyph unicode="." horiz-adv-x="421" d="M53 120q-6 36 6.5 67.5t46 56t89.5 30.5q76 4 120.5 -34.5t53 -90t-22 -96.5t-106.5 -53q-53 -6 -93.5 10.5t-64 45t-29.5 64.5z" />
<glyph unicode="/" horiz-adv-x="946" d="M50 94q-7 33 3 70q14 61 45 121q90 213 180.5 425t186.5 425q33 72 70.5 142.5t72.5 137.5q10 20 23.5 36.5t30.5 29.5q39 41 91 44t97 -26q41 -31 52 -76t-11 -96q-43 -104 -88 -204.5t-86 -204.5q-78 -176 -153 -351.5t-152 -355.5q-18 -41 -41 -79t-45 -79 q-23 -35 -53.5 -52t-53.5 -17q-47 0 -83 14t-57.5 38.5t-28.5 57.5z" />
<glyph unicode="0" horiz-adv-x="927" d="M54 781.5q18 150.5 71 301.5q25 63 57.5 121t81.5 101q18 10 30.5 31.5t29.5 33.5q61 53 134.5 74.5t143.5 7.5t130.5 -67.5t94.5 -149.5q33 -86 39 -171t6 -165q0 -147 -19 -279.5t-62 -259.5q-25 -61 -53.5 -118.5t-67.5 -110.5q-51 -66 -112.5 -99.5t-126 -33.5 t-126 34t-112.5 99q-55 76 -85 163t-45 179q-27 158 -9 308.5zM383 784.5q-4 -100.5 12 -204.5q4 -45 12.5 -90.5t30.5 -86.5q23 29 44.5 82.5t37 119t24.5 137t10 139t-9.5 125t-30.5 92.5q-45 -10 -72.5 -34t-38.5 -77q-16 -102 -20 -202.5z" />
<glyph unicode="1" horiz-adv-x="579" d="M43 934q-16 39 2 82q4 6 8 13t8 15q37 61 75 123t75 121q33 55 82 75.5t102 -1.5q74 -29 90 -102q12 -43 20.5 -88.5t14.5 -90.5q14 -129 11 -254t-13 -252q-4 -43 -7 -98t-7 -113.5t-8 -113.5t-9 -98q-2 -14 -3 -27.5t-5 -28.5q-29 -102 -129 -102q-49 -2 -84 22.5 t-49 73.5q-6 23 -10 48.5t-4 47.5q0 68 1 149t3 164t3 162.5t3 149.5q0 20 1 40t1 38q-31 -2 -58.5 -6t-50.5 2q-47 10 -63 49z" />
<glyph unicode="2" horiz-adv-x="911" d="M45 727q-4 35 0 72t10 73q14 94 44 183.5t83 171.5q35 53 79 97t101 75q70 39 141.5 45t134 -16.5t113 -73.5t76.5 -127q37 -102 35 -203.5t-31 -206.5q-31 -117 -85 -221t-117 -207q-10 -14 -18.5 -25.5t-16.5 -27.5q-2 -4 -1 -6t-1 -6q18 -2 42.5 -4.5t49.5 -5.5 t47.5 -8t34.5 -13q37 -20 55.5 -52t18.5 -66t-17.5 -66.5t-54.5 -53.5q-12 -6 -31.5 -12t-42 -12t-44 -11.5t-34.5 -7.5q-31 -6 -62.5 -7t-61.5 -5q-41 -4 -81 -6t-81 -6q-20 -2 -39 -3t-39 1q-47 2 -81 24.5t-52.5 56t-17.5 74.5t24 80q25 45 54.5 89t60.5 85 q57 84 112.5 167t100.5 173q70 129 86 277q2 29 1 61.5t-10.5 54t-28.5 23.5t-52 -31q-27 -31 -58 -78t-55.5 -98t-37.5 -100t-5 -82q6 -57 -22.5 -96t-86.5 -45q-25 -4 -48 2t-43.5 20t-33 35.5t-14.5 48.5z" />
<glyph unicode="3" horiz-adv-x="1003" d="M44 464q9 40 46 68q82 61 166 11q23 -10 39 -26.5t33 -35.5q33 -47 71.5 -77.5t75.5 -33.5t67 25.5t46 100.5q16 80 -0.5 118.5t-95.5 44.5q-51 6 -91 25q-33 16 -45 47t-2 66q10 29 35 48t60 23h61q14 16 25.5 58.5t16.5 92.5t4 99t-11 78t-28.5 29t-47.5 -47 q-20 -45 -37.5 -90.5t-34.5 -92.5q-16 -49 -51 -75.5t-84 -18.5q-45 10 -69.5 45t-18.5 84q16 86 42 168t75 154q43 63 103.5 102t144.5 41q82 2 142 -36t105 -103q39 -55 54.5 -117.5t13.5 -130.5q-4 -57 -10 -111.5t-13 -109.5q-6 -29 11 -56q102 -129 112.5 -268 t-53.5 -287q-53 -123 -160 -208q-109 -86 -232.5 -86t-232.5 88q-111 86 -182 206q-14 25 -25.5 50.5t-19.5 54.5q-14 43 -5 83z" />
<glyph unicode="4" horiz-adv-x="831" d="M47 575q2 63 4 127t10 127q31 236 62 467q2 16 4 31.5t6 30.5q14 53 54 78.5t94 21.5q51 -6 82.5 -40t31.5 -89q0 -98 -2 -195.5t-6 -195.5q-2 -47 -5 -95t-7 -100q-2 -2 2 -20q29 6 55.5 10t54.5 8q6 49 11.5 95.5t13.5 93.5q2 70 18 141q23 90 105 100q41 2 71.5 -20.5 t45.5 -67.5q23 -63 31 -130.5t8 -137.5q-2 -98 -5.5 -199.5t-7.5 -199.5q0 -27 -2 -63t-5 -74.5t-6 -75.5t-5 -64q-2 -12 -4 -25.5t-6 -25.5q-10 -47 -44 -73.5t-83 -24.5t-82 31.5t-41 76.5q-10 76 -13 148q0 16 -1 43.5t-1 56.5v58v49q-29 -4 -50 -10.5t-44 -10.5 q-41 -8 -81 -18.5t-79 -16.5q-35 -4 -68.5 7.5t-59 34t-41 57t-15.5 79.5z" />
<glyph unicode="5" horiz-adv-x="989" d="M49 182q-41 113 31 185q41 35 94 44t100 -16q23 -10 44.5 -20t50.5 -4q31 6 54 21.5t44 35.5q51 49 65.5 108.5t-8.5 116.5q-12 31 -38.5 32t-56.5 -12.5t-57.5 -32.5t-39.5 -30q-35 -29 -73 -35t-75 15q-78 41 -73 135q4 78 13 152.5t13 152.5q2 98 0 197 q-2 41 6.5 75.5t40.5 61.5q51 37 107 25q106 -29 208.5 -17t202.5 39q25 6 49.5 10t51.5 -6q61 -23 79.5 -79t-22.5 -107q-16 -23 -41.5 -39t-52.5 -29q-78 -35 -158 -45t-162 -10h-45v-148q14 4 26.5 6.5t27.5 6.5q121 23 228.5 -23.5t174.5 -150.5q70 -109 80 -224.5 t-21.5 -220t-97 -188.5t-147.5 -127q-70 -37 -142.5 -49.5t-150.5 -3.5q-47 4 -92 12t-92 31q-51 25 -89 63.5t-57 91.5z" />
<glyph unicode="6" horiz-adv-x="837" d="M53 816.5q29 199.5 133 385.5q20 39 44 74t51 70q25 29 55.5 50t66.5 31q66 16 117 -22q45 -31 48 -81t-33 -97q-59 -72 -89.5 -159t-46.5 -181q76 2 146.5 -21.5t126 -68.5t89.5 -108.5t36 -143.5q4 -127 -40 -236.5t-130 -202.5q-51 -59 -113.5 -84.5t-127 -21.5 t-125 39t-105.5 100q-41 59 -65.5 127t-35.5 140q-31 211 -2 410.5zM373 614q4 -82 14 -161.5t45 -167.5q55 18 83 72.5t22.5 112.5t-45 102t-119.5 42z" />
<glyph unicode="7" horiz-adv-x="911" d="M31 1241q-2 37 19.5 66.5t62.5 42.5q25 8 51 12t51 6q199 18 379 92q39 12 75 20.5t76 -5.5q72 -20 104 -79t3 -128q-8 -25 -20.5 -48.5t-22.5 -45.5q-41 -78 -72.5 -157t-60.5 -169q18 2 29.5 3t25.5 1q45 4 80 -16.5t45 -59.5t-8.5 -71.5t-63.5 -49.5q-23 -10 -47 -15 t-49 -11q-16 -4 -34.5 -5t-37.5 -6q-4 -10 -8 -19t-8 -19q-27 -102 -53.5 -214t-52.5 -214q-4 -12 -8.5 -27.5t-10.5 -26.5q-18 -55 -60 -81.5t-102 -18.5q-53 8 -88 47t-32 94q2 53 11 118t17 118q8 45 16.5 92t18.5 100q-23 -6 -42 -10t-40 -8q-43 -8 -82 11.5t-53 57.5 q-16 41 -1 81t60 57q45 16 93.5 27.5t95.5 21.5q10 2 28 2q33 82 68 164t70 168h-33q-68 -2 -134.5 -4t-133.5 -2q-10 -2 -18.5 1t-18.5 7q-39 14 -60.5 40.5t-23.5 59.5z" />
<glyph unicode="8" horiz-adv-x="884" d="M38 453.5q7 76.5 33.5 149.5t67.5 138q23 29 15 62q-31 180 30.5 320.5t196.5 250.5q86 74 201 62q131 -12 198 -133q29 -47 42.5 -99.5t17.5 -105.5q6 -63 3 -127t-24 -125q-20 -68 -40.5 -135.5t-43.5 -141.5q41 -55 57.5 -115.5t0.5 -127.5q-14 -70 -56.5 -131.5 t-98.5 -107.5t-124 -72.5t-135 -26.5q-86 -2 -159 42t-120 122q-43 72 -56 148.5t-6 153zM307.5 429q-4.5 -81 28.5 -153q33 -66 92 -24q31 20 52.5 48t35.5 60q14 47 -4 75t-51 50.5t-69.5 45t-61.5 57.5q-18 -78 -22.5 -159zM396.5 959.5q-1.5 -41.5 13 -79.5t43 -68 t71.5 -48q31 117 48.5 205t11.5 139q-8 51 -32 57t-51.5 -13t-52 -51t-34.5 -57q-16 -43 -17.5 -84.5z" />
<glyph unicode="9" horiz-adv-x="897" d="M46 880.5q-9 77.5 1 156.5t37 145q23 55 59.5 99t82.5 76t100.5 48t109.5 16q92 -4 162 -46t125 -113q43 -59 64.5 -127t33.5 -138q31 -174 14.5 -342t-75.5 -333q-31 -86 -85 -155t-126 -124q-41 -29 -82 -43t-88 -10q-72 4 -120 41t-77 96q-14 31 -12 62.5t17.5 58 t42 46t63.5 25.5q33 16 57.5 39t40 46.5t22.5 43t9 29.5q-88 -2 -153.5 32t-112.5 90t-74 130t-36 151.5zM287 1012q-2 -23 3 -60t16 -73.5t28.5 -68.5t39 -46t47 -4t54.5 57q23 35 31 80t4 92t-17.5 89t-34 69t-49 33t-59.5 -19q-16 -14 -26.5 -31.5t-20.5 -37.5 q-14 -41 -16 -80z" />
<glyph unicode=":" horiz-adv-x="587" d="M133 328.5q-4 62.5 40 115t140 52.5q88 -4 135.5 -57.5t50.5 -115t-38 -111.5t-129 -50q-92 0 -143.5 52t-55.5 114.5zM133 908.5q-4 62.5 40 114.5t140 52q88 -4 135.5 -57t50.5 -114.5t-38 -112t-129 -50.5q-92 0 -143.5 52.5t-55.5 115z" />
<glyph unicode=";" horiz-adv-x="587" d="M96 205q14 66 22.5 127t12.5 129q6 76 55.5 111.5t104.5 30.5t101 -48t46 -123q0 -47 -7 -103.5t-25.5 -107.5t-52.5 -91t-85 -54q-35 -12 -68.5 -7t-59 23.5t-38 48t-6.5 64.5zM133 908.5q-4 62.5 40 114.5t140 52q88 -4 135.5 -57t50.5 -114.5t-38 -112t-129 -50.5 q-92 0 -143.5 52.5t-55.5 115z" />
<glyph unicode="&#x3c;" horiz-adv-x="706" d="M53.5 678.5q-6.5 58.5 38.5 112.5q10 12 22.5 24t26.5 23q63 47 126 92t128 90q31 20 65 32.5t75 8.5q76 -6 102 -74q25 -66 -41 -121q-47 -37 -96.5 -76.5t-102.5 -80.5q35 -23 66 -40.5t61 -35.5q43 -27 80 -58q29 -29 33 -61.5t-16 -62.5q-14 -29 -47 -44.5t-68 -9.5 q-10 2 -21.5 5.5t-21.5 7.5q-74 33 -147.5 66.5t-147.5 66.5q-12 8 -26.5 15t-26.5 17q-55 45 -61.5 103.5z" />
<glyph unicode="=" horiz-adv-x="714" d="M57 489q-8 39 17.5 76t72.5 49q12 4 23 4q190 27 389 -4q16 -4 29 -10q39 -16 57.5 -46t9.5 -64q-4 -35 -34.5 -59.5t-69.5 -24.5q-96 -4 -183.5 -3.5t-179.5 -3.5q-51 0 -88 24t-43 62zM57 793q-8 39 17.5 75.5t72.5 49.5q12 4 23 4q190 27 389 -4q16 -4 29 -11 q39 -16 57.5 -46t9.5 -64q-4 -35 -34.5 -59.5t-69.5 -24.5q-96 -4 -183.5 -3t-179.5 -3q-51 0 -88 23.5t-43 62.5z" />
<glyph unicode="&#x3e;" horiz-adv-x="706" d="M39 459q-16 70 59 112q51 29 106.5 60.5t114.5 64.5q-31 29 -58.5 50.5t-53.5 44.5q-18 16 -36.5 33.5t-35.5 35.5q-23 33 -21.5 65.5t25.5 61.5q18 25 54 35t69 -2q20 -4 39 -19q68 -43 135.5 -88t134.5 -90q10 -10 23.5 -18t23.5 -23q47 -53 45.5 -110.5t-55.5 -104.5 q-27 -25 -57 -39q-70 -35 -138.5 -69.5t-140.5 -69.5q-35 -16 -69.5 -22.5t-73.5 4.5q-76 16 -90 88z" />
<glyph unicode="?" horiz-adv-x="952" d="M55 1067q8 88 54.5 152.5t114 107.5t150.5 63.5t167 22.5q59 -2 114.5 -24.5t101.5 -59.5t79.5 -88t52.5 -111q33 -115 11.5 -215t-73.5 -194q-35 -57 -64.5 -86t-54 -53.5t-43 -59.5t-28.5 -102q-10 -72 -49 -106.5t-111 -18.5q-41 10 -64.5 36.5t-33.5 61.5 q-12 37 -2 85t35.5 102.5t62.5 112t80 114.5q31 51 33 99t-17.5 79t-55.5 39t-81 -23q-31 -20 -53.5 -46.5t-45 -50t-53 -37t-75.5 -7.5q-70 8 -113 67.5t-39 139.5zM349 125.5q7 26.5 30 52.5q41 41 93 47t99 -28q31 -18 44.5 -46t12.5 -55.5t-18.5 -51.5t-50.5 -36 q-29 -12 -59.5 -16t-58 2t-49.5 23.5t-34 48.5q-16 33 -9 59.5z" />
<glyph unicode="@" horiz-adv-x="1570" d="M46 558.5q-7 103.5 11 205.5q35 170 109 310t205 249q80 63 171 105t201 59q96 12 193.5 -3.5t184.5 -54t160 -99t122 -134.5q98 -156 98 -301t-88 -274q-23 -35 -51.5 -65t-58.5 -56q-66 -43 -141 -39t-146 57q-13 4 -17 6q-23 -12 -45 -24.5t-51 -22.5t-57.5 -18 t-59.5 -8q-61 0 -111 31.5t-87 84.5q-33 53 -48.5 108.5t-7.5 108.5q18 135 93 222.5t217 119.5q35 6 73.5 4t79.5 -18q49 -18 78 -50t45 -75q29 -66 -20 -104q-53 -37 -113 -6q-10 4 -21.5 12t-21.5 14q-29 4 -55.5 -13.5t-47 -45t-31.5 -58t-9 -53t18.5 -30t50.5 15.5 q23 14 45.5 29.5t47.5 31.5q53 35 106 16.5t82 -85.5q0 -4 6 -11q4 4 13.5 8.5t13.5 10.5q41 47 63.5 101t14.5 120q-4 51 -27 98t-59.5 86t-85 69t-103.5 44q-61 18 -118.5 13t-110.5 -27q-80 -33 -139.5 -86.5t-106.5 -122.5q-66 -102 -98.5 -218t-28.5 -245q0 -41 10 -80 t23 -80q33 -94 127 -106q49 -8 96 -11.5t90 0.5q115 14 221.5 41t210.5 66q31 12 57.5 26.5t55.5 30.5q74 25 126 9.5t74.5 -52.5t8 -88t-73.5 -96q-51 -37 -110.5 -62.5t-112.5 -50.5q-100 -37 -206 -66.5t-214 -45.5q-72 -8 -145.5 -7t-149.5 21q-283 80 -377 346 q-41 109 -48 212.5z" />
<glyph unicode="A" horiz-adv-x="1146" d="M49 125q-15 28 -15 53q0 35 29 64q25 27 39.5 55.5t26.5 58.5q66 174 132.5 347.5t135.5 347.5q35 94 74 184t80 182q16 39 43 66q28 33 66 46q27 9 55 9q11 0 21 -1q38 -5 71 -26.5t53 -60.5q8 -18 15.5 -37.5t11.5 -38.5q53 -211 100 -422t82 -428q14 -84 21.5 -166 t13.5 -163v-19q0 -29 -4 -63q-12 -53 -51 -85t-93 -36h-12q-42 0 -80 24q-43 28 -63 78q-10 23 -17.5 50.5t-15.5 56.5q-98 -23 -194 -28q-53 -3 -106 -3q-43 0 -85 2q-35 0 -60.5 -9t-46.5 -38q-42 -62 -120 -62h-9q-72 4 -98 62zM438 397q37 0 72 -1h23l47 1q36 0 70 -2h8 q30 0 61 13q-16 117 -35 233t-37 233h-8q-49 -117 -98 -235.5t-103 -241.5z" />
<glyph unicode="B" horiz-adv-x="1183" d="M53 1290q2 14 4 26.5t6 26.5q10 37 34 61q23 22 53 32q17 5 36 6q14 0 28 -3q34 -7 62 -32q6 -4 13.5 -10t17.5 -17q12 16 39 31q76 55 158 93t178 44h23q83 0 158 -26q85 -30 153 -103q72 -78 80 -166q1 -14 1 -29q0 -75 -34 -157q-25 -55 -62.5 -101t-80.5 -87 q-8 -10 -17.5 -16.5t-17.5 -16.5q12 -12 26 -19q88 -49 141.5 -123.5t69.5 -160.5q7 -37 8 -76q0 -51 -12 -103q-22 -92 -86 -176q-139 -188 -381 -194q-17 -1 -35 -1q-56 0 -108 10q-70 13 -139 36q-29 10 -52 8q-10 -1 -19 -1q-50 0 -92 26q-50 32 -67 102 q-12 53 -22.5 105.5t-18.5 105.5q-37 225 -44 451q-4 121 -4 243q0 105 3 211zM383 1083q8 -41 15.5 -83t17.5 -91q57 47 111.5 87t103.5 83q23 18 42 42t36 50q8 14 14 34t0 32q-17 33 -54 33q-7 0 -15 -1q-48 -7 -101 -35t-99 -61.5t-61 -48.5q-16 -18 -10 -41zM453 467 q0 -20 1 -41.5t3 -46.5q35 0 65.5 -1t61.5 1q41 2 69.5 21.5t46.5 54.5q17 28 17 54q0 9 -3 19q-9 34 -48 56q-49 23 -99 28q-27 4 -56.5 3t-57.5 -1v-147z" />
<glyph unicode="C" horiz-adv-x="1257" d="M49 714q6 154 65.5 299.5t157.5 256.5t224 165q106 46 231 45q23 0 47 -1q96 -6 174 -56.5t125 -124.5q47 -76 59 -166q3 -21 2 -42q0 -69 -28 -136q-16 -35 -37.5 -60.5t-60.5 -37.5q-27 -10 -52.5 -6t-45 18.5t-32 36t-12.5 49.5q-2 37 -8 73t-24 69q-22 39 -50 52 q-16 7 -37 7q-16 0 -34 -4q-76 -16 -123 -84q-39 -49 -65.5 -108.5t-41 -123t-15.5 -127.5v-9q0 -58 11 -111q23 -104 56.5 -154.5t74.5 -59.5q12 -3 24 -3q30 1 61 17q44 22 87 64t81 95t67 104q30 23 62 34q19 6 39 6q15 0 32 -3q67 -10 103 -59q30 -40 29 -95 q0 -12 -1 -24q-4 -29 -12 -59.5t-25 -59.5q-94 -190 -289 -307q-130 -80 -260 -80q-28 0 -54 4q-158 20 -292 148q-119 111 -169 258q-45 131 -45 268q0 16 1 32z" />
<glyph unicode="D" horiz-adv-x="1222" d="M31 1303q2 39 12 83q10 41 35.5 67t58.5 35q16 4 33.5 4t35.5 -4q36 -9 66 -38q4 -4 7.5 -9t9.5 -11q59 35 117.5 59t123.5 35q61 10 119 10q79 0 153 -18q130 -31 234 -140q90 -92 122 -204q22 -78 22 -160q0 -36 -4 -74q-31 -276 -173.5 -464.5t-386.5 -309.5 q-16 -10 -37.5 -15.5t-39.5 -9.5q-25 -4 -35 -15t-15 -36q-10 -39 -34.5 -66.5t-56.5 -41.5q-28 -12 -61 -11h-10q-38 2 -73 23q-31 16 -49.5 43.5t-26.5 62.5q-25 106 -43 211q-23 125 -42 250t-36 254q-16 123 -25 245q-5 65 -5 129q0 58 4 116zM363 1127.5 q1 -13.5 6 -33.5q31 -141 58 -282t62 -280q76 33 132.5 90.5t93.5 128t54 149.5q14 64 14 127q0 15 -1 30q-4 72 -42 118t-101 58q-29 5 -58 5q-33 0 -63 -6q-60 -11 -112 -46q-18 -10 -27.5 -18.5t-13 -17.5t-2.5 -22.5z" />
<glyph unicode="E" horiz-adv-x="995" d="M100 1470q41 29 95 35q74 8 146.5 13.5t143.5 9.5q59 2 121 4t121 2q53 0 100 -21q47 -18 67 -58q15 -29 15 -59q0 -12 -2 -24q-10 -45 -46 -68.5t-83 -27.5q-59 -4 -118.5 -11.5t-120.5 -11.5q-35 -4 -69 -9t-69 -9q-4 -61 -9 -120.5t-9 -123.5h102h236q29 0 51 -8 q76 -25 88 -102q1 -7 1 -14q-1 -29 -15 -53q-18 -30 -51 -50q-35 -23 -76 -30t-82 -11q-66 -6 -131.5 -12t-134.5 -11q0 -10 -2 -19t0 -19q2 -47 3 -96.5t7 -94.5q10 -67 44 -91q29 -21 81 -21q9 0 18 1q63 8 126 15.5t128 15.5q15 3 29 3q40 0 76 -21q31 -16 49 -43 t21 -57.5t-7 -60.5t-37 -54q-20 -14 -40.5 -24.5t-43.5 -20.5q-70 -29 -143.5 -46.5t-149.5 -21.5q-12 -1 -23 -1q-73 0 -139 22q-76 26 -136 75t-101 119t-55 156q-10 78 -12 152v26q0 61 6 125q14 129 28.5 256t30.5 256v26q-10 6 -19.5 12.5t-15.5 10.5q-51 40 -51 94 q0 61 57 96z" />
<glyph unicode="F" horiz-adv-x="1155" d="M51 1445q0 50 41 91q31 29 70 41t80 12q61 -2 119.5 -6t117.5 -10q78 -4 155 -10.5t152 -14.5q45 -6 88.5 -10t88.5 -12q23 -4 45 -12.5t43 -22.5q33 -23 48 -53q13 -27 13 -56v-8q-2 -33 -20.5 -62.5t-53.5 -45.5q-57 -29 -127 -29q-123 -3 -245 -5q-8 0 -16 -1 q-115 0 -236 22q12 -100 20 -194t19 -189q49 -4 96 -6t92 -6q59 -4 115.5 -9t113.5 -11q16 0 29.5 -4.5t28.5 -10.5q33 -16 49 -43.5t18 -57.5t-12 -59.5t-43 -50.5q-33 -27 -73 -35t-81 -10q-59 -4 -116.5 -4h-114.5h-63q0 -16 -1.5 -28.5t1.5 -28.5q4 -90 11 -178t13 -181 q2 -20 1 -40.5t-3 -43.5q-18 -109 -131 -133q-12 -2 -25 -2q-33 0 -67 16q-47 22 -70 64q-10 23 -20.5 48.5t-14.5 49.5q-20 123 -38.5 241t-38.5 241q-4 20 -9.5 39.5t-9.5 40.5q-12 25 -12 50q0 23 10 48q4 12 7 23.5t3 23.5q0 129 6.5 255t24.5 255q-10 10 -19.5 15 t-17.5 16q-41 41 -41 91z" />
<glyph unicode="G" horiz-adv-x="1353" d="M68 688q14 201 95 368t228 302q86 80 186.5 126t219.5 56q19 1 37 1q65 0 124 -17q76 -21 135.5 -63t100.5 -100t57 -124q13 -44 13 -88q0 -14 -1 -29q-6 -57 -44 -106q-14 -16 -32 -32.5t-36 -25.5q-27 -15 -52 -15q-21 0 -41 10q-44 22 -61 73q-4 14 -5 26.5t-5 24.5 q-10 35 -29 64q-31 47 -68 60q-14 5 -30 5q-28 0 -61 -14q-51 -16 -91 -47t-75 -70q-158 -193 -164 -438q-1 -13 -1 -26q0 -80 33 -143q38 -73 128 -120q45 -24 87 -24q63 0 118 55q41 41 66.5 92.5t45.5 110.5q-59 -4 -114.5 -6.5t-110.5 -4.5h-7q-62 0 -118 33 q-63 40 -63 105q0 12 2 24q12 74 81 98q39 16 80 27.5t82 24.5q86 23 172 25q17 1 34 1l138 -8q98 -10 144 -71q43 -55 43 -121v-11q-8 -135 -46 -261t-116 -238q-55 -78 -129 -130.5t-159 -76.5q-76 -22 -157 -22h-20q-92 3 -182 38q-104 41 -188.5 110.5t-141.5 159 t-84 193.5q-20 78 -20 162q0 28 2 57z" />
<glyph unicode="H" horiz-adv-x="1296" d="M63 1386q0 18 3.5 37t7.5 39q8 37 33.5 59.5t66.5 32.5q19 4 36 4q54 0 93 -42q18 -18 29.5 -40t21.5 -49q49 -129 80 -262t47 -272q0 -8 1 -14.5t3 -16.5q86 4 170 5t172 5q10 39 16.5 77t14.5 75q27 104 66 204.5t82 201.5l12 24t16 27q41 51 109 51q13 0 28 -2 q39 -8 65 -30.5t32 -63.5q6 -27 9 -54.5t-1 -52.5q-10 -117 -20.5 -232.5t-20.5 -232.5q-4 -59 -8 -115.5t-8 -113.5q-8 -121 -15.5 -241t-17.5 -240q0 -14 -3 -25.5t-5 -24.5q-12 -90 -107 -110q-27 -9 -52 -9q-58 0 -106 48q-37 41 -53 88q-14 53 -23.5 107.5t-17.5 107.5 q-6 66 -11 136t-11 142q-76 -4 -147.5 -8t-149.5 -8q-4 -31 -6 -55q-10 -92 -20.5 -180.5t-24.5 -180.5q-4 -25 -10.5 -50.5t-20.5 -49.5q-27 -52 -80 -76q-37 -16 -79 -17q-18 0 -36 3q-47 8 -79.5 39.5t-41.5 77.5q-4 23 -6 44t-2 44q-4 164 -8 324.5t-8 320.5 q-2 137 -6 272t-9 272z" />
<glyph unicode="I" horiz-adv-x="659" d="M35 84q-4 29 11 51.5t44 36.5q14 8 27.5 13t29.5 10q-17 181 -17 360q0 111 7 223q17 288 84 578q-16 4 -30.5 4t-26.5 2q-49 8 -82 34.5t-33 65.5q0 34 32 58q34 26 83 28q23 0 48.5 -4t47.5 -2q53 2 106.5 4t108.5 4q12 0 23.5 1t23.5 -1q59 -4 80 -53q10 -27 1 -50.5 t-38 -35.5q-14 -10 -27.5 -15t-29.5 -12q20 -146 24 -294q2 -60 2 -121q0 -87 -4 -173q-6 -146 -20.5 -293t-30.5 -294q20 -4 34.5 -6t31.5 -6q29 -4 46 -21.5t23 -44.5q8 -25 -3 -45t-36 -35q-12 -8 -25 -14t-28 -6q-170 -20 -342 -37q-18 -2 -38.5 2t-39.5 10 q-59 23 -67 78z" />
<glyph unicode="J" horiz-adv-x="1218" d="M47 313v12q0 236 160 408q41 47 89 85t99 79q29 23 66 30q15 3 31 3q23 0 47 -6q33 -8 57.5 -29t34.5 -47.5t7 -56t-22 -58.5q-16 -29 -39.5 -52.5t-44.5 -49.5q-23 -33 -44 -64.5t-44 -64.5q-31 -56 -31 -112q0 -10 1 -21q2 -27 11 -34t38 -9q20 0 37.5 8t31.5 20 q33 29 55.5 58.5t41.5 66.5q47 98 76.5 196.5t46.5 203.5q0 23 4 63.5t6 85.5q1 18 1 36q0 27 -2 53q-3 44 -17.5 74t-41.5 39q-7 3 -17 3q-22 0 -54 -16q-41 -31 -83 -60t-83 -57q-16 -12 -31.5 -25.5t-32.5 -21.5q-33 -18 -65 -18q-8 0 -16 1q-41 6 -70 37q-28 28 -28 64 q0 38 30 73q53 61 109.5 121t121.5 107q35 23 70 44t76 38q70 31 135 31q26 0 52 -5q89 -18 169 -90q41 -37 70.5 -83t50.5 -95q35 -84 50 -169t18 -177q1 -20 1 -40q0 -131 -23 -256q-26 -144 -85 -284q-41 -96 -101.5 -177t-150.5 -140q-149 -102 -310 -102 q-109 0 -224 47q-113 45 -171.5 130t-62.5 203z" />
<glyph unicode="K" horiz-adv-x="1302" d="M27 68q20 139 36 286q10 63 15.5 127t13.5 125q12 138 13 276v56q0 110 -3 221q-4 68 -7 136.5t-5 138.5v10q0 43 31 82q23 27 52.5 40t62 12t62.5 -15.5t52 -40.5q16 -23 28.5 -48.5t20.5 -50.5q41 -98 64.5 -197.5t42.5 -203.5q2 -8 6 -29q2 0 2 -2q0 -4 2 -4 q27 -6 41 5.5t29 27.5q98 115 198.5 228.5t196.5 228.5q37 41 83 56q24 8 48 8q23 0 47 -7q47 -12 78 -50t31 -85q0 -29 -7.5 -56.5t-15.5 -56.5q-6 -29 -31 -57q-90 -135 -184 -263t-209 -245l-8 -8t-8 -13q4 -8 9 -15t9 -13q37 -47 73 -92t75 -86q33 -35 71.5 -63 t73.5 -58q20 -16 40 -30.5t36 -31.5q32 -40 32 -85q0 -10 -2 -20q-8 -56 -61 -93q-47 -33 -96 -36h-16q-42 0 -86 13q-47 16 -86 40t-78 56q-66 59 -120 127t-106 138q-10 16 -21.5 32t-27.5 39q-10 -76 -19 -140.5t-24 -129.5q-8 -51 -20 -102.5t-29 -102.5 q-23 -63 -65 -113q-47 -53 -119 -65q-18 -3 -35 -3q-53 0 -100 28t-70 74q-18 35 -18 75q0 12 2 25z" />
<glyph unicode="L" horiz-adv-x="1249" d="M52 294q-1 20 -1 40q0 27 2 53q10 109 17.5 214.5t23.5 213.5q16 123 38 248l44 250q8 35 17.5 67.5t25.5 65.5q14 33 40 54.5t56.5 29.5t62.5 4t62 -23q61 -41 68 -116q4 -65 7 -129q2 -38 2 -77q0 -26 -1 -52q-4 -137 -9 -274.5t-9 -274.5q0 -31 -3 -60.5t-6 -58.5v-78 q61 6 121 19q96 16 194 26q81 8 162 8h33q59 0 113 -20q39 -16 62.5 -47t29.5 -67q2 -12 2 -24q0 -24 -8 -48q-12 -36 -45 -66q-23 -20 -49.5 -34.5t-52.5 -24.5q-86 -33 -175.5 -52.5t-181.5 -31.5q-141 -23 -288 -37q-33 -3 -65 -3h-16q-40 1 -81 9q-78 16 -125 69.5 t-58 133.5q-6 47 -9 93z" />
<glyph unicode="M" horiz-adv-x="1349" d="M47 817q2 123 18.5 240t57.5 231q10 35 24.5 69t36.5 64q29 43 70 65q39 21 79 20h4q42 -1 81 -24.5t67 -68.5q23 -35 35 -77t29 -83q8 -18 14 -57q18 31 31 53q45 86 100.5 164t128.5 143q41 37 88 64t105 37q28 5 54 5q52 0 100 -22q70 -32 116 -104q39 -70 49 -154 q8 -66 8 -132q0 -20 -1 -40q-3 -86 -11 -172q-29 -229 -57.5 -446t-44.5 -436q-4 -123 -99 -154q-29 -11 -56 -11q-32 0 -62 14q-56 26 -82 89q-23 57 -31 114.5t-10 117.5q-1 44 -1 84q0 62 2 116q3 90 11 178.5t23.5 178.5t38.5 198q10 47 18 95.5t14 95.5q6 33 3 44 t-11 8t-18.5 -16.5t-20.5 -27.5q-86 -109 -137 -229.5t-82 -251.5q-12 -49 -21.5 -98.5t-23.5 -100.5q-16 -94 -106 -115q-20 -4 -38 -4q-32 1 -62 13q-46 20 -68 69q-14 29 -21.5 58.5t-15.5 58.5q-6 27 -11.5 53.5t-9.5 54.5q-4 25 -9 49.5t-13 53.5q-2 -6 -4 -11.5 t-4 -9.5q0 -76 -4 -154q-2 -35 -3 -71q-1 -43 3 -85q6 -77 23 -150.5t58 -137.5q35 -20 40 -56q1 -7 1 -14q0 -29 -16 -57q-23 -37 -55.5 -56t-68.5 -21h-9q-31 0 -61 12q-34 14 -60 49q-16 23 -27.5 47.5t-19.5 50.5q-43 143 -61 291q-15 122 -16 245q0 27 1 54z" />
<glyph unicode="N" horiz-adv-x="1153" d="M51 970.5q0 116.5 2 235.5q0 113 105 154q36 13 70 13q68 0 124 -56q16 -20 30.5 -44t31.5 -46q70 -117 137 -233.5t137 -235.5l9 -13.5t10 -19.5q4 16 8 22.5t4 16.5q27 168 73 328.5t103 320.5q10 23 21.5 44.5t23.5 37.5q35 39 83 48q15 3 30 3q33 0 65 -14 q44 -18 66 -60q17 -31 16 -67q0 -13 -2 -27q-16 -98 -34.5 -192t-37.5 -193q-31 -168 -45 -334.5t-16 -341.5q0 -33 -3 -64.5t-7 -64.5q-8 -66 -41 -111.5t-99 -68.5q-37 -13 -73 -13q-78 0 -148 62q-51 45 -89 96.5t-73 108.5q-41 66 -77.5 132.5t-75.5 133.5 q-6 10 -11.5 16.5t-9.5 14.5q-4 0 -8 -2v-47q2 -82 2 -162t2 -158q0 -39 -10 -84q-10 -41 -37.5 -66.5t-68.5 -29.5q-6 -1 -12 -1q-34 -1 -64 19q-35 22 -45 64q-10 33 -14.5 68t-6.5 71q-10 127 -21.5 252t-17.5 252q-6 119 -6 235.5z" />
<glyph unicode="O" horiz-adv-x="1185" d="M53 543q2 129 29 252t86 239q8 16 15 30.5t18 27.5q20 33 35.5 63.5t25.5 65.5q6 18 13.5 32.5t17.5 30.5q86 131 231 209q77 38 158 38q59 0 121 -20q150 -51 237.5 -147t108.5 -250q4 -39 6 -76.5t6 -62.5q-10 -150 -28.5 -286t-69.5 -267q-39 -100 -100.5 -185 t-151.5 -151q-86 -58 -179 -80q-52 -12 -107 -12q-44 0 -91 8q-113 20 -191.5 84t-125.5 160q-35 72 -51 146q-14 65 -13 133v18zM444 692q-2 -29 -1 -57q1 -38 3 -75q6 -64 25 -130q27 -80 65 -81h2q38 0 87 46q43 41 70.5 91.5t45.5 109.5q25 74 36 151.5t18 155.5 q3 42 3 83.5t-3 82.5q-6 61 -23.5 86t-41 25t-51.5 -20.5t-53.5 -49.5t-47 -60.5t-33.5 -54.5q-10 -23 -19.5 -46t-25.5 -40q-31 -39 -38 -80t-11 -86q-4 -10 -4.5 -24t-2.5 -27z" />
<glyph unicode="P" horiz-adv-x="1134" d="M57 1055q1 16 1 32.5t-1 32.5q-1 11 -1 22q0 22 3 44q10 45 21.5 89t28.5 85q8 27 31.5 42t52.5 21q16 4 32.5 11.5t34.5 17.5q92 48 190 74q85 23 177 23q14 0 28 -1q86 -4 164 -33.5t137.5 -84t95 -130t42.5 -167.5q1 -22 1 -44q0 -329 -282 -526q-78 -53 -163 -90 t-179 -55v-193v-52.5t-4 -51.5q-6 -59 -44 -94t-91 -45q-9 -1 -19 -1q-39 1 -77 21q-48 26 -68 78q-16 41 -26.5 84t-20.5 86q-35 200 -51 400q-13 161 -14 325q0 40 1 80zM379 1202q14 -96 26.5 -193.5t24.5 -195.5q45 18 87 53t76 78t57.5 91t31.5 95q2 10 3 22.5t-1 23.5 q-6 61 -63 69q-29 5 -57 5q-34 0 -66 -7q-60 -12 -119 -41z" />
<glyph unicode="Q" horiz-adv-x="1095" d="M43 709q0 135 30.5 252.5t84.5 230.5q8 18 11 37.5t-1 42.5q-5 18 -5 35q0 23 9 43q16 34 51 57q78 51 163 51q44 0 91 -14q63 -18 122.5 -43t119.5 -53q111 -57 184.5 -145.5t108.5 -192.5q33 -96 33 -200q0 -7 -1 -14q-2 -112 -43 -216q-47 -121 -118.5 -222.5 t-182.5 -175.5q-16 -10 -21 -22.5t-7 -28.5q-4 -45 -5 -88t-5 -90q-4 -53 -35 -88t-78 -39q-6 -1 -13 -1q-43 0 -77 25q-39 27 -53 80q-10 35 -12.5 72t-2.5 72q-2 29 -12 45t-39 26q-72 29 -123 81.5t-88 117.5q-49 88 -67.5 180.5t-18.5 184.5zM397 672q10 -76 37 -152 q25 -66 54 -70h4q27 0 73 50q51 55 82 120.5t45 137.5q5 30 5 58q0 119 -85 206q-31 33 -68.5 56t-84.5 46q-37 -113 -57 -224q-12 -63 -12 -127q0 -50 7 -101z" />
<glyph unicode="R" horiz-adv-x="1183" d="M60 792q0 9 -1 18q0 170 9 341q2 51 9 99t13 96q4 16 7 29.5t12 29.5q18 41 52 63q29 18 64 18q7 0 13 -1q84 -6 118 -90q8 -16 11.5 -37t11.5 -43q10 10 20.5 18t18.5 19q61 59 132 104t152 74q48 16 96 24q24 4 46 5q25 0 49 -5q98 -20 161.5 -87.5t80.5 -168.5 q6 -40 5 -77q0 -43 -6 -83q-14 -76 -49 -151q-104 -238 -327 -362q-29 -16 -59.5 -31.5t-59.5 -32.5q10 -23 27 -31q41 -35 81.5 -72.5t86.5 -68.5q35 -23 72.5 -40t76.5 -36q2 -2 12 -2q51 -18 79 -51q26 -31 26 -70v-6q-4 -41 -35 -72.5t-80 -43.5q-21 -4 -41 -4 q-40 0 -78 16q-37 16 -74.5 33.5t-68.5 42.5q-68 53 -132.5 112.5t-129.5 116.5q-10 10 -20.5 19.5t-20.5 19.5q-6 0 -10 -4q2 -47 4 -91t4 -91q2 -23 3 -45.5t1 -45.5q0 -109 -94 -139q-22 -7 -44 -7q-24 1 -48 9q-46 16 -74 56q-16 20 -26.5 44.5t-14.5 49.5 q-16 68 -25.5 135t-17.5 137q-18 180 -18 360zM490 886q12 -20 39 -19q12 -1 26 3q47 12 113 82q29 31 50 73q20 42 30 80q7 27 7 49q0 8 -1 18q-4 30 -23.5 37.5t-57.5 -15.5t-95 -86q-68 -74 -86 -134q-10 -31 -10 -52q-1 -22 8 -36z" />
<glyph unicode="S" horiz-adv-x="1071" d="M47 1178q25 115 112 190.5t200.5 116.5t235.5 47q24 1 46 1q94 0 172 -20q61 -12 105.5 -50t70.5 -97q14 -34 14 -65q0 -34 -17 -65q-32 -58 -105 -75q-61 -11 -125 -11q-42 0 -86 5q-35 5 -65 5q-45 0 -77 -12q-52 -18 -64 -56q-5 -13 -5 -29q1 -29 17 -63 q24 -52 85 -107q49 -47 106.5 -83t113 -70.5t103.5 -74.5t79 -94q51 -87 51 -185v-8q-2 -102 -47 -181q-47 -84 -115 -131.5t-160 -63.5q-67 -10 -130 -10h-20q-72 2 -147 18q-115 27 -184 123q-33 48 -33 101v6q0 33 15.5 58.5t40 42.5t54 22.5t60.5 -3.5q39 -12 68 -38 q56 -50 112 -52q4 0 8 1q50 0 70 27q9 12 8 28q0 24 -19 57q-32 55 -151 119q-96 49 -175 118.5t-140 161.5q-57 92 -81 190q-12 49 -13 101q0 51 12 105z" />
<glyph unicode="T" horiz-adv-x="1404" d="M44 1369q-9 22 -9 44q0 24 10 49q17 48 65 70q40 19 89 19q9 0 18 -1q59 -8 118.5 -13t119.5 -7q116 -3 230 -3h57q142 1 284 3q41 0 79 7t75 9q23 2 45 1t43 -9q80 -25 96 -106q2 -13 2 -26q0 -67 -55 -103q-35 -20 -70 -38t-72 -26q-72 -16 -142.5 -23.5t-141.5 -17.5 q-9 0 -27 -6q28 -240 28 -476v-16q-1 -244 -1 -493q0 -31 -2 -60.5t-9 -58.5q-10 -61 -53 -101t-102 -46h-12q-47 -1 -91 27q-50 32 -67 85q-14 41 -22.5 82t-12.5 82q-23 179 -36 357q-10 136 -10 273q0 42 1 85q2 47 7 95t7 97q2 14 2 27.5t2 28.5q-51 10 -101 18t-99 19 q-47 10 -90 26.5t-84 44.5q-51 35 -69 81z" />
<glyph unicode="U" horiz-adv-x="1411" d="M48 894q18 180 63 359q4 23 13 44.5t19 41.5q27 49 71 70q29 14 58 14q15 0 31 -4q96 -25 115 -141q4 -27 4 -54.5v-56.5q4 -102 7 -204.5t9 -206.5q-1 -30 -1 -57q-1 -140 17 -207q20 -80 58 -86q4 -1 8 -1q34 1 76 47q47 52 96 134t93 176t75 172q43 94 85 189.5 t87 191.5q10 23 21.5 42t27.5 34q46 54 100 54q26 0 54 -13q41 -16 62.5 -52.5t25.5 -83.5q4 -49 6 -97t2 -95q4 -236 5 -470.5t5 -469.5q0 -16 -2 -33.5t-6 -34.5q-12 -84 -90 -102q-16 -3 -30 -3q-25 0 -45 8q-34 13 -56 50q-12 20 -21.5 45t-15.5 47q-10 45 -17 91.5 t-16 91.5q-2 16 -4 30.5t-6 32.5q-23 -25 -33 -41q-43 -61 -90 -115.5t-102 -101.5q-53 -47 -111.5 -75.5t-126.5 -39.5q-24 -3 -48 -3q-145 0 -261 106q-90 80 -137 184.5t-64 226.5q-18 115 -18 227q0 70 7 139z" />
<glyph unicode="V" horiz-adv-x="1226" d="M41 1247q-5 26 -5 49q0 82 70 117q27 15 59 15q15 0 33 -4q52 -12 85 -56q16 -18 28.5 -39.5t22.5 -44.5q59 -123 104 -252t82 -260q4 -10 8 -24.5t9 -24.5l10 -10q31 76 59.5 148.5t57.5 144.5q41 98 80.5 193t97.5 187q14 25 30.5 48.5t36.5 44.5q49 59 131 59 q39 0 73 -16.5t55.5 -43t30.5 -62.5q5 -22 5 -44q0 -15 -2 -31q-14 -55 -30.5 -110t-41.5 -103q-102 -217 -191 -435t-179 -439q-16 -39 -34.5 -75t-41.5 -70q-35 -59 -89 -88q-40 -22 -87 -22q-16 0 -33 3q-74 10 -117 51t-65 111q-59 172 -96 347t-74 349 q-23 98 -42.5 193.5t-39.5 193.5z" />
<glyph unicode="W" horiz-adv-x="1824" d="M50 469q-3 44 -3 88q0 51 4 102q12 164 55.5 320t116.5 303q23 47 53.5 89t63.5 85q39 51 109 68q19 5 37 5q35 1 68 -17q50 -26 64 -80q10 -29 3 -55.5t-23 -47.5q-61 -78 -91 -166t-52 -180q-35 -137 -51 -273q-10 -85 -11 -172q0 -53 4 -106q4 -39 12.5 -80t28.5 -82 q23 20 39.5 37t30.5 37q74 90 129 188.5t96 206.5q49 124 174 124q11 0 23 -1q100 -10 145 -92q16 -29 28.5 -57.5t29.5 -55.5q23 -41 44 -84t48 -90q18 27 22 41q20 63 28.5 130t8.5 134v24q0 100 -14 198q-16 108 -35 219q-2 10 -6 20.5t-8 20.5q-18 39 -18 74 q0 53 40 100q39 41 84 55q29 9 61 9q18 0 37 -3q68 -12 117 -49t84 -96t58.5 -125t44.5 -137q33 -110 46 -220q7 -62 7 -125q0 -49 -4 -98q-10 -102 -38 -199.5t-75 -185.5q-33 -66 -77 -116t-103 -91q-111 -71 -230 -71h-5q-122 2 -232 74q-117 80 -180 200q-4 6 -9.5 13.5 t-13.5 17.5q-10 -16 -16 -27.5t-17 -23.5q-37 -41 -71.5 -84t-73.5 -82q-66 -63 -158 -88q-36 -8 -70 -8q-39 0 -77 11q-70 21 -127 77q-43 43 -72 97t-47 114q-29 92 -36 186z" />
<glyph unicode="X" horiz-adv-x="1402" d="M47 274q-1 10 -1 18q0 27 14 49q18 28 55 44q72 29 128 73t105 95q10 8 16.5 18.5t18.5 18.5q-16 27 -26.5 49.5t-26.5 46.5q-59 106 -105.5 217t-70.5 230q-8 43 -10 87q-1 19 0 38q0 25 1 51q6 53 43 85.5t91 39.5q8 1 16 1q50 0 95 -23q52 -26 81 -79 q27 -49 46.5 -100t41.5 -103q16 -45 33.5 -88t40.5 -92q10 12 18 22.5t13 18.5q70 106 138 207.5t138 204.5q18 27 34.5 48.5t39.5 43.5q45 41 111 41q16 0 32 -2q78 -10 119 -60q31 -37 31 -80q0 -15 -4 -30q-10 -33 -20.5 -63.5t-25.5 -59.5q-86 -160 -176 -309.5 t-200 -292.5q-6 -6 -11.5 -14.5t-11.5 -18.5q72 -88 142.5 -169t156.5 -158q10 -12 27.5 -21.5t36.5 -17.5q47 -20 76.5 -51t37.5 -78q2 -13 2 -25q0 -28 -13 -51q-19 -33 -58 -55q-54 -33 -108 -37q-10 -1 -20 -1q-45 0 -94 15q-59 16 -107 45t-95 64q-61 47 -114.5 98 t-104.5 108q-10 10 -20.5 21.5t-20.5 28.5q-18 -12 -31.5 -23.5t-28.5 -19.5q-51 -39 -104 -68t-121 -45q-32 -9 -66 -9h-7q-38 1 -77 15q-41 12 -68.5 36.5t-31.5 65.5z" />
<glyph unicode="Y" horiz-adv-x="1359" d="M43 1327q-2 17 -2 34q0 29 6 58q10 43 45 68.5t78 30.5q6 1 12 1q35 0 68 -21q39 -23 53 -64q23 -66 42.5 -128.5t35.5 -125.5q31 -121 49.5 -214.5t43.5 -135.5q17 -27 39 -27q13 0 28 9q41 24 114 138q35 45 73 109.5t77 132.5t76 131t71 109q27 33 56 61q41 31 88 38 q16 2 32 2q30 0 58 -9q43 -13 75.5 -45.5t45.5 -81.5q7 -29 7 -58q0 -15 -2 -30q-5 -45 -12 -88q-16 -131 -31.5 -260.5t-37.5 -260.5q-14 -88 -34.5 -176t-57.5 -174q-35 -78 -85 -144.5t-122 -121.5q-76 -53 -164 -78.5t-184 -30.5q-23 -2 -48 -2q-18 0 -36 1q-43 3 -84 8 q-33 4 -61.5 20t-51.5 39q-31 29 -41 63q-6 20 -6 38q0 15 4 30q8 33 32.5 59.5t65.5 42.5q27 10 52.5 15.5t54.5 13.5q37 12 72.5 23.5t70.5 23.5q125 55 178 180q18 47 32 94.5t16 96.5q-8 -6 -15.5 -14.5t-17.5 -14.5q-35 -37 -71 -73.5t-77 -67.5q-51 -43 -111 -67 q-55 -23 -118 -23h-10q-70 0 -124 26.5t-100 73.5q-37 47 -58 100.5t-30 110.5q-10 68 -16 135.5t-14 132.5q-8 72 -15.5 143.5t-13.5 143.5z" />
<glyph unicode="Z" horiz-adv-x="1306" d="M61 1268v6q0 43 27 80q29 39 82 53q37 12 76 18.5t78 14.5q117 20 228.5 39.5t225.5 40.5q59 10 117.5 20t118.5 19q31 2 62.5 -0.5t60.5 -12.5q39 -12 63.5 -37.5t33.5 -56.5q4 -16 4 -32t-4 -32q-9 -32 -36 -59q-35 -37 -60.5 -79t-50.5 -83q-51 -84 -101 -166.5 t-99 -166.5q-4 -8 -9.5 -17.5t-13.5 -19.5q49 -6 94.5 -12.5t90.5 -10.5q10 -2 17 -2t15 -4q35 -10 55.5 -36.5t20.5 -61.5q-4 -33 -28.5 -57.5t-65.5 -30.5q-18 -2 -37.5 -1t-40.5 1q-59 4 -118.5 8t-125.5 8q-41 -63 -83 -127.5t-87 -132.5q14 0 24.5 -1t20.5 1q37 1 74 1 q74 0 146 -3q110 -4 221 -21q43 -4 80 -16t71 -41q36 -30 50 -66q11 -27 10 -54q0 -9 -1 -18q-5 -36 -29 -65.5t-62 -44.5q-31 -10 -58 -10q-205 6 -388 7h-22q-172 0 -339 -15q-59 -8 -108.5 -8t-104.5 22q-61 18 -88 72q-15 30 -15 62q0 26 10 53q20 51 50 88 q53 82 107 161.5t110 161.5q12 12 20 31q-20 4 -37.5 9t-33.5 9q-47 12 -70 43q-20 26 -20 59q0 6 1 11q4 37 33 65.5t74 28.5q12 1 25 1q25 0 50 -3q38 -4 74 -12q35 -6 56.5 2t40.5 37q45 66 90 129t92 125q4 6 8 14t15 21q-35 -4 -64 -8.5t-55 -8.5q-78 -14 -152 -24.5 t-151 -18.5q-16 -2 -33 -2q-21 0 -42 3q-38 5 -73 15q-53 10 -85 49.5t-32 88.5z" />
<glyph unicode="[" horiz-adv-x="630" d="M57 371q-8 260 0.5 516t22.5 514q12 178 182 198q72 2 143.5 1t131.5 -39q47 -35 45 -89.5t-54 -87.5q-20 -10 -42.5 -16t-45.5 -12t-45 -9.5t-51 -7.5q-4 -274 -5 -545.5t5 -545.5q23 -4 57.5 -6t53.5 -9q51 -16 78.5 -42.5t32.5 -58.5t-14.5 -64.5t-57.5 -63.5 q-33 -23 -73 -36t-82 -16t-83 2t-74 19q-115 41 -121 160q-4 59 -3 118.5t-1 119.5z" />
<glyph unicode="\" horiz-adv-x="946" d="M43.5 1423q11.5 45 52.5 76q45 29 97.5 26t91.5 -44q16 -12 29.5 -28.5t23.5 -37.5q35 -68 73 -138.5t70 -141.5q96 -213 186.5 -425t180.5 -425q29 -59 45 -121q20 -72 -26 -126t-140 -54q-23 0 -53.5 17t-52.5 52q-23 41 -45.5 79t-40.5 79q-78 180 -153 355t-153 352 q-41 104 -86 204.5t-88 204.5q-23 51 -11.5 96z" />
<glyph unicode="]" horiz-adv-x="630" d="M45 77q2 54 53 87q20 10 43 16t45 13q23 6 45.5 9t51.5 7q4 274 5 545.5t-5 545.5q-23 4 -58 6.5t-53 8.5q-53 16 -79.5 42.5t-32 58.5t13 64.5t59.5 63.5q33 23 73 36t82 16t83 -2t73 -19q115 -41 121 -160q4 -59 3 -118.5t1 -118.5q8 -260 0 -516t-22 -515 q-12 -178 -182 -198q-72 -2 -143.5 -1t-131.5 40q-47 35 -45 89z" />
<glyph unicode="^" horiz-adv-x="673" d="M76 1126q16 29 32.5 56.5t32.5 56.5q33 53 65 107.5t60 109.5q20 37 50 57.5t73 16.5q41 0 68.5 -23.5t44.5 -60.5q6 -12 10 -25q27 -72 51.5 -142.5t50.5 -139.5q16 -41 6 -73t-38 -52q-29 -20 -69 -18.5t-69 28.5q-16 14 -34 43q-12 18 -25 38.5t-27 47.5 q-18 -35 -33.5 -66.5t-33.5 -62.5q-14 -29 -37 -47.5t-53 -22.5q-80 -10 -121 50q-37 57 -4 122z" />
<glyph unicode="_" horiz-adv-x="815" d="M39 121q0 39 28.5 66.5t82.5 37.5q27 8 65 8q100 4 193.5 1t189.5 -3q18 0 35.5 -1t40.5 -7q41 -8 66.5 -31.5t29.5 -54.5q4 -76 -86 -104q-47 -10 -94 -13q-168 -10 -332 -12q-55 0 -106 12q-53 8 -83 37t-30 64z" />
<glyph unicode="`" horiz-adv-x="561" d="M53 1368q6 27 24.5 48.5t47.5 31.5q63 23 115 -10q53 -37 105 -74t106 -76q6 -2 14 -10q66 -61 39 -139q-16 -33 -51 -53.5t-84 -18.5q-6 2 -18.5 5t-24.5 9q-137 63 -242 179q-23 25 -30 53t-1 55z" />
<glyph unicode="a" horiz-adv-x="980" d="M51 993q4 16 8 23q76 143 186.5 240.5t276.5 127.5q33 6 64 6q70 0 132 -30q92 -44 144 -135q41 -70 54.5 -144.5t17.5 -152.5q2 -35 2 -71q0 -91 -12 -180q-16 -124 -35 -247q-20 -137 -49 -278q-4 -18 -8.5 -38t-14.5 -38q-23 -47 -59.5 -68.5t-76.5 -21.5t-75 18.5 t-51 52.5q-2 4 -5 7.5t-7 7.5q-45 -18 -93 -26q-38 -6 -74 -5h-20q-88 2 -156.5 44t-105.5 107.5t-37 144.5t47 152q78 125 194 195t265 86q4 2 9.5 2t15.5 2q11 70 11 142q0 48 -5 96q-2 12 -4 26.5t-6 28.5q-10 31 -22.5 40t-47.5 -1q-94 -29 -164 -96q-25 -25 -46 -52.5 t-44 -54.5q-29 -39 -71 -48q-12 -3 -24 -3q-30 0 -59 16q-37 18 -51 52q-8 20 -8 41q0 16 4 32zM358.5 367.5q-6.5 -15.5 6.5 -35.5q23 -5 46 -4q17 0 31 2q38 6 111 32q4 41 9 81t9 87q-61 -27 -110 -56.5t-84 -76.5q-12 -14 -18.5 -29.5z" />
<glyph unicode="b" horiz-adv-x="1026" d="M41 952q6 98 26.5 192.5t71.5 184.5q47 86 119 141.5t170 73.5q37 6 74 7h6q34 0 67 -11q82 -23 131.5 -89.5t49.5 -158.5v-14q0 -46 -12 -87q-14 -48 -35 -95q-59 -109 -145.5 -183.5t-211.5 -109.5q2 -20 1 -40t3 -44q16 10 27.5 17t19.5 12q80 39 164 45q18 1 35 1 q65 0 125 -18q76 -22 136.5 -68t92.5 -111q31 -61 31 -134v-9q-2 -78 -49 -167q-78 -139 -215 -224q-61 -39 -128 -56q-46 -12 -94 -12q-23 0 -46 3q-63 8 -121 26.5t-117 47.5q-59 31 -89 74.5t-40 105.5q-29 174 -45 347q-9 92 -9 187q0 82 7 166zM354 1042q49 18 91 73.5 t61 115.5q10 39 7 62.5t-16.5 30.5t-34 -4t-40.5 -44q-35 -51 -47.5 -109.5t-20.5 -124.5zM383 366q8 -24 49 -26q2 0 4 -1q40 0 107 40q61 39 81.5 76t9.5 58.5t-48 22.5h-2q-36 0 -90 -32q-66 -35 -92 -74q-20 -30 -21 -51q0 -7 2 -13z" />
<glyph unicode="c" horiz-adv-x="886" d="M37 618q6 145 66.5 275.5t191.5 222.5q102 68 201 68q111 0 219 -84q43 -33 76 -90q35 -60 43 -118q2 -12 2 -23q0 -45 -25 -87q-16 -25 -41 -44t-54.5 -25t-62 6t-65.5 53q-18 25 -37 44.5t-37 23.5h-7q-37 0 -59 -18q-24 -20 -42 -56q-36 -72 -42 -146q-1 -11 -1 -23 q0 -64 26 -130q25 -59 57 -75q13 -7 29 -7q24 0 55 14q23 8 46.5 22.5t44.5 31.5q23 18 47 29.5t53 9.5q63 -10 97 -62q25 -38 25 -87q0 -17 -3 -36q-4 -25 -13.5 -47t-21.5 -41q-61 -92 -142 -146.5t-186 -56.5h-8q-114 0 -199 58q-88 60 -151 170q-45 78 -63.5 167.5 t-18.5 206.5z" />
<glyph unicode="d" horiz-adv-x="1150" d="M55 625q18 76 59.5 142.5t99.5 117.5t129 83.5t149 43.5q52 7 102 7h12q56 -1 113 -18q4 -2 10 -1t14 1q6 43 10.5 86t14.5 87q8 49 18.5 100t22.5 104q4 18 13 38t20 36q39 61 108 61q55 1 89 -35q29 -30 29 -79q0 -8 -1 -17q-15 -129 -15 -258v-16q1 -137 7 -277 q4 -135 14 -266t21 -264q0 -14 1 -25.5t1 -23.5q-4 -125 -115 -164q-92 -31 -182 -54.5t-189 -29.5q-15 -1 -30 -1q-108 0 -200 38q-106 43 -187 139q-86 92 -126 208q-24 68 -24 138q0 49 12 99zM393 506q12 -63 61.5 -104.5t114.5 -41.5q31 0 60.5 3.5t58.5 7.5 q14 2 24.5 5t20.5 5v258q0 4 -1 6t-5 12q-53 0 -109 1h-22q-44 0 -86 -3q-27 0 -50.5 -14t-41 -35.5t-24.5 -48.5t-1 -51z" />
<glyph unicode="e" horiz-adv-x="1015" d="M51 614q-1 26 -1 52q0 98 18 195q22 122 80.5 217.5t156.5 153.5q95 56 234 56h10q70 0 134.5 -22.5t115.5 -62.5t86 -97t47 -129q8 -45 8 -87q0 -70 -20 -132q-32 -102 -99 -170t-159 -92q-35 -9 -71 -10q-57 0 -116 24q-6 2 -11 4t-9 4q-3 0 -13 2q2 -74 29 -122 t65 -64q18 -7 37 -7q23 1 49 11q48 18 91 76q46 61 124 61h5q59 -4 96 -48q30 -36 30 -82q0 -10 -1 -21q-4 -29 -15.5 -54.5t-23.5 -50.5q-66 -96 -154 -157.5t-205 -81.5q-34 -6 -65 -6q-60 0 -113 20q-80 30 -151 98q-51 51 -86 114.5t-56.5 132.5t-33 139.5t-13.5 135.5z M452 876q-1 -12 -1 -23q0 -35 12 -58q25 -51 54.5 -70.5t55 -15.5t46 28.5t29.5 60.5q5 20 5 43q0 18 -3 37q-7 44 -36 89q-38 48 -69 48q-5 0 -9 -1q-36 -8 -57.5 -47t-26.5 -91z" />
<glyph unicode="f" horiz-adv-x="972" d="M52 754q5 135 39 261t114 232q70 92 171 132q46 18 101 18q65 0 141 -25q47 -16 93.5 -46t84.5 -68.5t63.5 -83t35.5 -89.5q3 -17 3 -32q0 -59 -50 -92q-41 -28 -80 -28q-31 0 -61 17q-16 10 -34 21.5t-32 27.5q-45 43 -78 49.5t-55.5 -13t-35.5 -58.5t-21.5 -86 t-11.5 -97t-3 -89q61 -4 127 -4.5t146 -0.5h22q55 -2 93 -25.5t55 -68.5q7 -20 7 -40q0 -22 -10 -45q-18 -42 -63 -70q-39 -20 -88 -31.5t-100.5 -19t-102.5 -11.5t-94 -10q4 -74 6 -146.5t8 -144.5q2 -25 2 -48.5v-45.5q-6 -86 -47 -128t-91 -43h-2q-49 0 -97 39 q-49 40 -70 122q-10 53 -23.5 107t-19.5 110q-18 135 -32 276q-11 105 -11 207q0 35 1 70z" />
<glyph unicode="g" horiz-adv-x="1050" d="M14 -130q-2 12 -2 23q0 30 15 60q20 41 62 63q33 18 69 18q10 0 20 -1q23 -4 42.5 -12.5t41.5 -16.5q79 -25 133 -25q17 0 31 3q61 10 95 54t48.5 122t24.5 180q-14 0 -36.5 -16.5t-52.5 -36t-66 -37t-77 -21.5h-18q-145 0 -233 121q-57 82 -67 171q-2 23 -2 45 q0 68 21 138q109 367 480 441q18 4 35 4t40 2q16 47 48 81t82 44q22 5 43 5q46 0 87 -23q60 -35 78 -103q6 -29 10.5 -59.5t6.5 -63.5q6 -70 13 -172t8 -221v-27q0 -106 -7 -221q-8 -129 -29.5 -251t-60.5 -228.5t-99.5 -183t-145.5 -114.5q-60 -27 -135 -27q-32 0 -66 5 q-104 16 -195.5 60.5t-173.5 116.5q-4 8 -11.5 14t-13.5 12q-35 35 -43 77zM337 618q-2 -14 -2 -29q0 -38 13 -73q27 -18 59.5 2.5t60.5 69.5t48.5 119.5t24.5 150.5q-55 -18 -99.5 -55t-71 -84t-33.5 -101z" />
<glyph unicode="h" horiz-adv-x="1124" d="M51 258q2 141 6 301t9 303q6 117 27.5 222.5t69.5 192.5t129 151.5t204 99.5q54 17 107 17q17 1 33 -1q68 -8 121.5 -39.5t88.5 -85t41 -123.5q1 -17 1 -33q0 -35 -6 -66q-8 -46 -30 -93q-45 -94 -111.5 -167t-160.5 -124q-37 -20 -77 -35.5t-81 -32.5q0 -10 -4 -42.5 t-2 -53.5q66 45 149.5 75t165.5 33h15q74 0 136 -27q70 -30 109 -105q23 -43 35 -87t23 -92q14 -78 15 -156v-7q0 -74 -20 -148q-8 -29 -24 -57q-23 -37 -59.5 -57.5t-76.5 -22.5h-9l-71 14q-40 16 -67 49q-16 23 -27.5 46.5t-19.5 46.5q-6 27 -6 59.5t1 66t2 66.5t-3 62 q-16 88 -38.5 122.5t-47.5 30.5t-49.5 -39t-45 -84t-34.5 -105.5t-18 -103.5q-6 -29 -9.5 -55.5t-9.5 -52.5q-18 -59 -63 -91t-109 -34q-61 0 -110.5 27.5t-69.5 87.5q-29 74 -29 147zM403 942q14 8 23.5 11t17.5 8q135 76 191 206q18 60 18 101v8q-2 43 -23.5 57.5 t-60.5 -2t-88 -71.5q-53 -66 -67 -151q-12 -74 -11 -146v-21z" />
<glyph unicode="i" horiz-adv-x="405" d="M46 377q-1 26 -1 51q-1 64 5 127q8 88 20 154q4 20 7 39.5t11 37.5q16 57 60 85q33 21 69 20q13 0 25 -2q53 -6 84.5 -44t31.5 -97q3 -61 3 -122q0 -30 -1 -60q-2 -90 -4 -181q0 -63 -2 -124.5t-2 -123.5q0 -109 -90 -139q-19 -6 -38 -6q-23 0 -46 8q-43 14 -72 53 q-29 61 -43 147.5t-17 176.5zM94 1153q-4 27 3 52.5t22.5 47t38 37t51.5 19.5q8 1 16 1q42 0 78 -28q43 -33 49 -82q2 -10 2 -20q0 -42 -28 -80q-34 -46 -88 -56q-8 -1 -16 -1q-42 0 -78 27q-42 32 -50 83z" />
<glyph unicode="j" horiz-adv-x="528" d="M-358 -330q10 54 59 88q45 29 92 46.5t91 38t81 50t60 82.5q33 78 48 182.5t20 210.5q4 87 4 168v32q-1 96 -1 155q0 23 2 42t6 40q6 53 38 87t79 44q15 3 30 3q33 0 63 -15q44 -23 65 -70q37 -82 49 -170q29 -209 31 -410v-16q0 -193 -49 -379q-25 -82 -65 -153.5 t-94 -125t-125 -86t-157 -36.5q-27 -2 -54 -2l-40 1q-47 3 -94 9q-74 10 -117 78q-25 39 -25 79q0 13 3 27zM127 1251v11q0 36 11 62q14 30 35.5 48.5t48 26.5t50.5 6q61 -4 96 -50q26 -34 26 -80q0 -15 -3 -32q-4 -33 -14 -62.5t-26.5 -52t-42 -35t-62.5 -8.5q-41 2 -70 27 t-35 66q-6 20 -9 40.5t-5 32.5z" />
<glyph unicode="k" horiz-adv-x="913" d="M33 490q-1 46 -1 91q0 103 6 205q9 148 35.5 292.5t80.5 279.5q16 43 45 86q43 46 94 46q17 0 35 -5q78 -29 82 -113q0 -41 -2 -84t-7 -84q-8 -90 -17 -177t-17 -175q-2 -4 -1 -8t1 -8q23 -16 34 -4t23 24q47 72 96 142.5t98 142.5q10 16 19.5 30.5t19.5 30.5 q27 29 60 40q16 5 32 5q17 0 35 -6q76 -27 82 -117q1 -11 1 -22q0 -46 -14 -86q-17 -49 -46 -96q-90 -154 -219 -283q-10 -8 -19.5 -18.5t-23.5 -20.5q37 -63 73.5 -118.5t88.5 -102.5q8 -10 18 -15.5t20 -9.5t20.5 -8t18.5 -8q47 -23 72 -63q20 -31 20 -66q0 -10 -2 -19 q-8 -49 -39.5 -83.5t-80.5 -45.5q-23 -6 -46 -6q-26 -1 -50 7q-48 14 -87 49q-23 20 -42 40.5t-35 45.5q-33 53 -65 104l-64 102q-8 12 -14.5 23.5t-16.5 21.5q-4 -68 -10 -135q-1 -14 -1 -28q0 -53 17 -107q9 -30 9 -56q0 -64 -54 -102q-36 -24 -76 -24h-10q-45 4 -82 37 q-35 35 -54.5 77t-25.5 87q-10 145 -14 295z" />
<glyph unicode="l" horiz-adv-x="432" d="M41 494q4 213 24.5 403t75.5 375q12 39 27.5 74.5t34.5 74.5q29 59 92 78q31 8 54 8q20 0 35 -6q32 -12 47 -40.5t15 -67.5t-6 -76q-27 -113 -50 -263q-24 -150 -36 -306q-10 -126 -10 -248q0 -28 1 -58q3 -150 32 -268q7 -26 7 -50q0 -60 -46 -99q-35 -27 -79 -30h-10 q-39 0 -73 21q-53 35 -79.5 95.5t-37 128t-12.5 135.5t-6 119z" />
<glyph unicode="m" horiz-adv-x="1527" d="M59 710q2 142 19.5 281t54.5 266q12 29 27.5 54.5t38.5 48.5q39 28 82 28q13 0 27 -2q58 -12 91 -63q17 -30 17 -64q0 -16 -4 -34q-10 -39 -15.5 -79t-11.5 -77q4 -2 6 -2t6 -2q63 81 132 109q46 18 89 18q22 0 42 -4q62 -14 113.5 -67.5t82.5 -133.5q23 23 45.5 44.5 t46.5 41.5q66 49 136 67q32 8 66 9q40 0 83 -12q59 -18 103 -58.5t73 -93.5q23 -45 38 -91t17 -97q6 -104 7 -206q0 -62 -3 -123q-6 -163 -34 -327q-8 -43 -31 -74.5t-54.5 -49t-69.5 -19.5h-8q-34 0 -67 14q-84 31 -100 125q-8 49 -16 99q-6 34 -6 68q0 16 1 32 q9 102 17 190q4 49 5 90q0 33 -3 60q-6 68 -19.5 88t-30 10t-35 -42t-34.5 -68q-31 -74 -54.5 -152t-43.5 -156q-10 -31 -17.5 -60.5t-19.5 -55.5q-16 -47 -47 -77t-80 -34q-12 -2 -22 -2q-43 -1 -76 25q-41 32 -54 90q-4 18 -5 36.5t-1 38.5v166t-2 166q-1 129 -31 149 q-5 3 -9 2q-27 0 -62 -91q-18 -49 -34.5 -122t-26 -151t-10.5 -150v-13q0 -64 9 -107q4 -20 4 -39q0 -21 -5 -41q-9 -37 -44 -61q-35 -25 -77 -27h-7q-38 0 -71 20q-66 41 -88 125q-25 137 -39 281q-12 125 -11 249v37z" />
<glyph unicode="n" horiz-adv-x="1249" d="M66 628q-5 72 -5 144q0 106 11 213q6 55 20 111.5t31 111.5q18 63 76 99q33 18 66 18q27 0 51 -11q58 -26 77 -95q8 -31 11.5 -63t7.5 -60q4 -51 7 -101.5t5 -109.5q12 18 20.5 31.5t18.5 27.5q47 78 105.5 140.5t136.5 105.5q59 31 119 36q12 1 23 1q47 -1 91 -17 q55 -20 101 -63t79 -107q25 -51 41 -114q11 -44 19 -138q7 -76 6 -164v-42q-2 -112 -15.5 -226t-45 -205.5t-83.5 -143.5q-40 -40 -97 -40q-17 0 -36 4q-53 12 -90 56.5t-41 107.5q-1 16 -1 36.5t1 47.5q2 53 7 111.5t9.5 112t4.5 85.5v47q-1 121 -9 209q-10 106 -36 130 q-6 6 -15 5q-24 0 -58 -57q-46 -76 -118 -291q-33 -106 -51 -218.5t-29 -223.5q-8 -68 -58 -110q-38 -32 -82 -32q-14 0 -28 3q-51 8 -91 39.5t-62 83.5q-16 41 -31.5 80.5t-22.5 80.5q-27 178 -40 354z" />
<glyph unicode="o" horiz-adv-x="976" d="M49 537q2 98 19.5 192t52.5 186q10 25 17 49.5t16 47.5q39 106 107.5 179t178.5 103q50 14 97 14q53 0 105 -18q96 -33 163 -123q45 -59 69.5 -125.5t36.5 -138.5q15 -89 15 -174q0 -112 -26 -217q-46 -186 -169 -354q-41 -57 -96 -100.5t-127 -63.5q-49 -13 -94 -13 q-138 0 -236 123q-59 68 -84.5 149t-36.5 169q-4 29 -4 57.5t-4 57.5zM393 418q1 -92 23 -129q19 -33 46 -33q4 0 7 1q31 5 65.5 46t63.5 107q35 90 56.5 197.5t23.5 202.5v18q0 82 -16 144q-18 68 -62 75q-43 -2 -81 -70t-67 -165q-30 -96 -46 -204q-13 -87 -14 -157 q0 -17 1 -33z" />
<glyph unicode="p" horiz-adv-x="1101" d="M68 558q-2 50 -2 100q0 95 6 190q8 147 30 299q4 20 11.5 39.5t17.5 40.5q23 37 55 57q26 15 58 15q8 0 16 -1q43 -4 72.5 -24.5t42.5 -65.5q4 -8 10 -14q14 10 26.5 21.5t26.5 19.5q78 57 160 77q34 8 69 8q52 0 107 -17q117 -39 187 -150q57 -92 77 -197q9 -48 9 -96 q0 -56 -13 -110q-22 -103 -92 -194t-190 -155q-72 -37 -149 -61.5t-159 -40.5q-4 0 -24 -6q2 -41 3 -78t5 -72q4 -51 6 -100l4 -98v-25q0 -59 -28.5 -100t-81.5 -51q-18 -4 -36 -4q-34 0 -66 15q-50 23 -74 79q-10 27 -17.5 53.5t-11.5 54.5q-23 154 -37 300.5t-18 290.5z M408 596q57 20 110 43t100 59q39 33 59.5 79t22.5 90v12q0 37 -11 67q-13 35 -41 44q-7 2 -16 2q-22 0 -51 -16q-40 -24 -89 -97q-47 -70 -72 -147q-16 -52 -16 -95q0 -22 4 -41z" />
<glyph unicode="q" horiz-adv-x="1081" d="M55 631v20q0 105 39 209q43 113 117 208t173 165t210 94q41 10 80 10t78 -14q82 -23 112 -98q4 -12 9.5 -22.5t19.5 -16.5q70 -27 98.5 -79t30.5 -120q1 -46 1 -91q0 -198 -15 -388q-17 -234 -37 -469q-2 -10 -2 -20.5t-4 -20.5q-23 -104 -125 -127q-19 -4 -36 -4 q-33 0 -62 13q-46 18 -76 61q-37 55 -41 125q-4 133 -9 254q-1 29 -1 59q0 95 12 199q-16 -23 -35 -51.5t-39 -57.5q-78 -111 -163 -141q-42 -14 -82 -14t-76 14q-74 30 -123.5 110t-53.5 193zM348 693q2 -42 19.5 -61.5t46 -4t65.5 89.5q25 49 51.5 120.5t59.5 163.5 q-84 -43 -142.5 -100t-82.5 -123q-17 -40 -17 -79v-6z" />
<glyph unicode="r" horiz-adv-x="931" d="M51 266q2 78 4 195t5 242.5t6.5 242.5t5.5 195q0 31 10 65q18 74 94 84q11 2 21 2q60 0 94 -61q4 -8 8 -17.5t8 -19.5q96 74 205 92q39 7 74 7q60 1 111 -19q81 -30 128 -105q43 -68 56 -145q2 -19 2 -36q0 -53 -23 -87q-31 -45 -77 -59q-20 -6 -41 -5q-27 -1 -56 9 q-51 18 -84 67q-67 104 -113 104q-16 0 -29 -12q-52 -47 -59 -260q-4 -102 -5 -173.5t-1 -132t-2 -122t-4 -143.5q0 -78 -49 -129q-45 -47 -116 -47h-11q-57 2 -100 38t-52 95q-10 60 -10 116v19z" />
<glyph unicode="s" horiz-adv-x="907" d="M52 996q5 61 27.5 116t59.5 101.5t88 76.5q74 40 157 62q70 19 139 19q12 0 24 -1q80 -4 151.5 -38t120.5 -107q36 -57 36 -119q0 -10 -1 -22q-8 -74 -66 -115q-38 -29 -70 -31h-11q-27 0 -53 7q-32 9 -64.5 21.5t-69.5 16.5q-8 1 -15 1q-41 0 -65 -20q-28 -24 -30 -61 v-6q0 -34 22 -72q24 -41 78 -71q51 -31 92 -60.5t76 -64.5q94 -99 122 -191q15 -52 15 -99q1 -37 -9 -72q-22 -79 -84.5 -139t-150.5 -95q-87 -35 -191 -40q-13 -1 -26 -1q-90 0 -180 31q-10 4 -20.5 6t-20.5 10q-35 18 -54.5 48t-19.5 71q0 47 21.5 78.5t58.5 48.5 q20 6 59.5 10t82.5 6t82.5 5t58.5 9q49 16 61.5 43t2 52.5t-34 48.5t-41.5 33q-61 33 -117.5 68.5t-103 80.5t-79 102.5t-49.5 130.5q-10 45 -10 90q0 16 1 32z" />
<glyph unicode="t" horiz-adv-x="1165" d="M49 799q2 43 29.5 70.5t66.5 44t82 23.5t74 11q6 55 14.5 123t17.5 137.5t20.5 135t21.5 118.5q16 59 64 85q28 15 58 15q22 0 46 -8q43 -12 65.5 -41.5t26.5 -72.5q10 -91 10 -180q0 -32 -1 -64q-5 -121 -5 -240q88 2 159.5 5.5t139.5 9.5h10q30 1 56 -9 q30 -12 51.5 -32.5t31 -49t3.5 -61.5q-6 -37 -31 -59.5t-57.5 -37.5t-68.5 -22.5t-65 -13.5q-59 -8 -79.5 -10t-33 -4t-30.5 -5t-74 -12q-3 -60 -3 -115.5t3 -104.5q5 -99 27 -139q11 -21 28 -21q15 0 36 18q42 37 108 188q23 49 70 67q33 13 64 13q14 0 27 -2q43 -8 73 -42 q22 -25 23 -64q0 -13 -3 -27q-12 -82 -48 -161t-88.5 -140.5t-118 -99t-138.5 -37.5q-111 0 -194 64.5t-137 162.5t-78 214q-18 87 -17 166q0 27 2 54q-37 2 -80 9.5t-79 23.5t-58 44q-21 26 -21 66v7z" />
<glyph unicode="u" horiz-adv-x="1189" d="M54 644q0 100 12 206q4 70 15 138.5t21 137.5q4 23 12.5 43.5t18.5 38.5q25 53 70 74q30 14 62 14q17 0 34 -4q43 -10 77 -49t38 -96q6 -102 6 -203q2 -266 18 -396q18 -130 42 -159q8 -10 17 -10q19 -1 39 37q32 56 62.5 165t60 251.5t52.5 287.5q4 18 10 38t14 36 q27 52 69 78q34 21 75 21q10 0 20 -1q113 -12 150 -131q8 -16 10 -36.5t4 -37.5q14 -160 28.5 -319.5t28.5 -323.5q6 -53 13.5 -108t11.5 -111q1 -15 1 -28q0 -131 -104 -162q-23 -7 -45 -7q-31 0 -61 14q-51 26 -78 91q-16 39 -28.5 80t-28.5 82q-9 20 -13 47 q-31 -45 -56 -86t-54 -78q-29 -33 -62.5 -64.5t-68.5 -54.5q-67 -42 -137 -42q-22 1 -44 5q-94 18 -165 99q-53 68 -84 149.5t-47 173.5q-16 97 -16 194v6z" />
<glyph unicode="v" horiz-adv-x="1091" d="M41 1077q-4 16 0 45q2 139 106 187q27 11 55 11q24 0 48 -8q52 -18 86 -73q16 -25 30.5 -53.5t26.5 -57.5q16 -51 29.5 -124.5t27 -150.5t27 -148.5t27.5 -120.5q27 68 58.5 157.5t65.5 183t66.5 182.5t61.5 155q8 16 18 33.5t21 33.5q37 47 89 59q16 4 31 4q35 0 68 -20 q47 -29 63 -84q8 -26 8 -54q0 -32 -10 -67q-12 -66 -36 -118q-78 -213 -157 -423t-157 -425q-8 -16 -14 -33.5t-16 -32.5q-29 -55 -71 -88t-88 -40q-13 -2 -26 -2l-66 13q-46 18 -85 62q-27 27 -47.5 62.5t-40.5 72.5q-53 121 -88 250t-60 264q-16 86 -27.5 173t-23.5 175z " />
<glyph unicode="w" horiz-adv-x="1378" d="M48 810q20 198 73 394q10 37 24.5 71t35 60.5t46 42t60.5 13.5q51 -2 83 -40q27 -32 28 -80q0 -9 -1 -18q-4 -59 -13 -118.5t-13 -118.5q-4 -47 -7 -120q-1 -36 -1 -72t1 -70q2 -70 10.5 -123t24 -61.5t40 42t61.5 187.5q20 72 60 108.5t81 37.5h2q40 1 75 -33 q36 -34 50 -103q23 -104 43 -158.5t37.5 -70t33 1t27 54.5t19.5 91t12 109q2 33 3 72.5t1 81.5v83t2 74q2 16 6 33.5t9 36.5q18 104 114 133q22 6 43 6q20 0 38 -6q38 -12 68.5 -38t50 -64t23.5 -81q10 -100 17.5 -199.5t7.5 -197.5t-10 -196.5t-33 -196.5 q-10 -41 -25.5 -80t-35.5 -78q-57 -117 -137 -162q-64 -36 -131 -36q-17 1 -33 3q-84 12 -163 73t-132 159q-12 -16 -21 -35q-23 -35 -43 -70.5t-49 -64.5q-41 -46 -90 -64q-40 -15 -80 -15q-10 0 -18 1q-48 4 -93 33t-77 80q-45 66 -67 139.5t-32 151.5q-14 112 -14 222 q0 88 9 176z" />
<glyph unicode="x" horiz-adv-x="1067" d="M51 1001v9q0 89 78 129q32 15 63 15q47 0 91 -36q18 -16 32.5 -35.5t30.5 -38.5q23 -29 43 -58t47 -64q55 76 104.5 146.5t102.5 139.5q29 35 55.5 70t57.5 65q47 51 107 51q32 0 67 -14q54 -23 76 -73q12 -26 11 -55q0 -25 -9 -52q-10 -29 -23.5 -54.5t-28.5 -47.5 q-70 -104 -138 -208t-140 -208q-8 -10 -17.5 -24.5t-21.5 -28.5q6 -10 12 -18.5t11 -16.5q57 -72 112 -143.5t109 -143.5q12 -18 24.5 -31.5t22.5 -29.5q24 -40 24 -81q0 -39 -17 -71q-17 -33 -48 -54.5t-74 -23.5h-12q-70 0 -121 43q-45 37 -88 76t-84 80q-23 20 -45.5 42 t-48.5 46q-10 -18 -21.5 -37.5t-25.5 -40.5q-20 -35 -39 -68.5t-41 -64.5q-16 -29 -41 -46t-60 -19h-5q-55 0 -92 41q-30 34 -30 78q0 12 2 24q6 33 14.5 64.5t20.5 62.5q27 57 52.5 114.5t54.5 112.5q10 23 9 39.5t-11 36.5q-45 70 -79 143.5t-56 151.5q-8 25 -11.5 51.5 t-5.5 54.5z" />
<glyph unicode="y" horiz-adv-x="1140" d="M46 840q1 104 20.5 195t50.5 143q29 49 84 78q37 19 84 19q23 0 49 -5q70 -12 97.5 -49t30.5 -85q1 -10 1 -19q0 -40 -11 -83q-12 -53 -20 -98q-23 -131 -23 -212q0 -41 5 -69q14 -67 47 -67q8 0 18 4q47 22 112.5 148t127.5 352q23 82 79 118q50 33 104 33h12 q59 -4 104 -48t45 -126q-1 -39 -1 -82q0 -64 2 -135q3 -119 3 -246t-5 -255t-22 -240q-16 -111 -62 -210.5t-118 -174t-171 -118.5q-91 -40 -203 -40h-21q-61 2 -106.5 26.5t-72 61.5t-32.5 82q-2 11 -2 23q0 32 14 63q17 41 62 72.5t118 44.5q49 8 99.5 48t89.5 110.5 t59 172.5q12 61 12 132q0 50 -6 106q-29 -57 -65.5 -95t-74.5 -61.5t-74.5 -35t-63.5 -17.5q-30 -5 -58 -5q-67 0 -119 31q-73 44 -117 123.5t-64 183.5q-18 98 -18 196v10z" />
<glyph unicode="z" horiz-adv-x="1038" d="M70 1150q-4 20 -4 40q0 32 12 61q22 47 64 69q25 13 55 13q19 0 41 -6q31 -6 58.5 -13t57.5 -16q48 -11 95 -10q41 0 80 8q85 18 173 33q31 9 62 13q15 2 30 2q17 0 35 -3q41 -8 76 -37.5t53 -72.5q17 -39 17 -85v-10q-2 -52 -33 -102q-27 -35 -60.5 -70.5t-67.5 -70.5 t-66.5 -67.5t-55.5 -63.5h13q32 0 61 -8q35 -10 45 -15q29 -20 43 -50q11 -23 11 -49q0 -7 -1 -15q-6 -35 -29.5 -56.5t-58.5 -19.5q-20 0 -39.5 4t-40.5 8h-5q-29 -1 -63 -23q-36 -24 -71 -60t-61.5 -72.5t-36.5 -57.5q36 1 71 1q52 0 100 -2q81 -3 161 -13q51 -10 88 -43 q35 -29 50 -73q8 -23 7 -45q0 -21 -6 -42q-20 -90 -103 -102q-78 -10 -154.5 -15.5t-152.5 -9.5q-57 -4 -113.5 -11t-115.5 -13q-29 -2 -59.5 2t-61.5 20q-66 32 -92 100q-14 36 -15 75q0 33 11 67q14 43 41.5 84t59.5 79.5t62.5 76.5t53.5 75q-31 2 -60.5 2t-54 6t-41 25.5 t-22.5 62.5q-1 10 -1 20q0 35 18 57q22 28 57.5 40t77.5 13h12q35 0 61 -5h6q28 0 58 16q34 18 62 43t45 56.5t17 58.5q-32 0 -70 -2q-26 -1 -52 -1h-26q-40 1 -78 6.5t-64 19.5q-29 16 -57.5 35.5t-55.5 44.5q-41 39 -53 93z" />
<glyph unicode="{" horiz-adv-x="815" d="M43 648.5q-6 27.5 3 56t36 51.5q18 16 40.5 28.5t45.5 22.5q23 12 49.5 25.5t47 30t27.5 38t-7 51.5q-74 125 -86.5 235.5t34 191.5t148.5 127t256 40q57 -2 91 -36.5t39 -76.5t-21.5 -78t-92.5 -38q-72 -4 -111.5 -26.5t-52 -56.5t0 -75t42.5 -80q35 -53 51.5 -99 t12.5 -89t-27.5 -87t-68.5 -91l-6.5 -6.5t-8.5 -10.5q10 -10 16.5 -19t14.5 -20q43 -51 51 -108t-8 -119q-6 -25 -14 -48.5t-15 -47.5q-25 -53 -18.5 -75.5t30 -30t57.5 -6.5t65 -5q47 -10 74.5 -37.5t33.5 -61.5t-9 -67t-52 -53q-35 -23 -73 -31t-77 -10q-45 -2 -90 -1 t-88 11q-86 18 -137 62.5t-71.5 104t-14.5 129t35 136.5q10 25 19 49.5t10 45t-7 35t-33 20.5q-14 4 -28.5 5t-28.5 7q-35 12 -56.5 36t-27.5 51.5z" />
<glyph unicode="|" horiz-adv-x="487" d="M75 758q5 235 34 473q2 23 5 45.5t3 32.5q45 133 129 133q47 4 83 -23.5t54 -77.5q10 -35 19.5 -70.5t13.5 -70.5q4 -115 7 -231.5t3 -233.5q-2 -162 -4 -321.5t-4 -323.5q-2 -25 -2 -48.5t4 -47.5q2 -63 -24.5 -108.5t-73.5 -61.5q-53 -18 -104.5 2t-80.5 76 q-14 27 -22.5 57.5t-12.5 60.5q-10 68 -18 132.5t-8 132.5q-6 238 -1 473z" />
<glyph unicode="}" horiz-adv-x="815" d="M37 118q6 34 33.5 61.5t74.5 37.5q31 6 65 5t57.5 6.5t29.5 30t-18 75.5q-6 25 -14.5 48.5t-14.5 47.5q-16 61 -8 118.5t51 108.5q8 10 14.5 19.5t16.5 19.5q-4 6 -8.5 10.5l-6.5 6.5q-45 47 -68.5 91t-27.5 87t12.5 89t50.5 99q31 39 43.5 80t0 75t-52.5 56.5t-111 26.5 q-66 2 -92.5 38t-21.5 78t39 76.5t91 36.5q154 6 255 -40t147.5 -127t35 -191.5t-85.5 -235.5q-16 -31 -8 -52t28.5 -37.5t47 -30t49.5 -25.5q23 -10 45.5 -22.5t40.5 -28.5q27 -23 36 -51.5t3 -56t-27.5 -51.5t-56.5 -36q-14 -6 -28.5 -7t-28.5 -5q-25 -6 -34 -20.5t-7 -35 t11 -45t19 -49.5q29 -68 35 -137t-14.5 -128.5t-71.5 -103.5t-137 -63q-43 -10 -88 -11t-90 1q-39 2 -77 10t-73 31q-37 20 -52 53t-9 67z" />
<glyph unicode="~" horiz-adv-x="1007" d="M59 539q37 111 104.5 193.5t174.5 133.5q53 29 109.5 12.5t91.5 -69.5q14 -23 26.5 -45.5t26.5 -44.5q25 -35 42 -39t56 20q49 31 74 78q23 45 67 60q27 10 52.5 6t45 -19.5t30 -39t6.5 -50.5q-4 -29 -15.5 -55.5t-25.5 -48.5q-78 -115 -209 -158q-125 -47 -232 37 q-31 23 -58 50.5t-60 60.5q-23 -39 -47.5 -77t-47.5 -73q-18 -31 -43.5 -49.5t-62.5 -18.5q-55 2 -89 42t-16 94z" />
<glyph unicode="&#xa2;" horiz-adv-x="1058" d="M58.5 783q9.5 81 43.5 159q98 231 355 305q8 4 18 7t23 10q-2 18 -6.5 37.5t-8.5 37.5q-8 49 15.5 84t70.5 47q47 8 86 -16t52 -72q10 -35 15 -71.5t9 -77.5q66 -27 121 -67t96 -99q37 -53 51.5 -112.5t-2.5 -125.5q-27 -100 -133 -104q-45 0 -82 26.5t-51 69.5 q-4 12 -5 26.5t-9 29.5q-10 16 -18.5 34.5t-24.5 30.5q-45 39 -92 38t-84 -44q-10 -12 -18.5 -22.5t-14.5 -22.5q-18 -45 -28.5 -107.5t-4.5 -120t36 -98.5t91 -43q111 -4 205 66q20 14 45 23.5t53 6.5q37 0 64.5 -15t45 -38.5t19.5 -53.5t-14 -60q-12 -25 -32.5 -48.5 t-43.5 -42.5q-41 -29 -83 -49t-89 -47q-2 -29 -4 -59.5t-10 -63.5q-6 -29 -13.5 -53.5t-23.5 -46.5q-23 -35 -59.5 -47t-77.5 2q-39 10 -58.5 40t-17.5 70q4 31 4 61t2 60q-29 4 -54.5 10.5t-49.5 16.5q-139 43 -212 137t-96 227q-10 84 -0.5 165z" />
<glyph unicode="&#xa3;" horiz-adv-x="1069" d="M43 131q-4 43 12.5 80t55.5 47q80 23 123.5 75t68.5 132q-35 -4 -58.5 -8t-45.5 -8q-43 -4 -79 14t-46 55q-14 39 -1 75t54 54q43 23 87 35t87 18q-10 29 -18.5 52.5t-16.5 48.5q-20 94 -11 192.5t47 181t106.5 142t166.5 76.5q96 16 191.5 -27t148.5 -139 q47 -82 37 -175.5t-69 -164.5q-29 -33 -63 -48.5t-79 -0.5q-84 27 -77 116q2 20 6 40t4 40q0 45 -18.5 62.5t-42 12.5t-43 -28.5t-19.5 -58.5t1 -76t7 -82t15.5 -77.5t23.5 -59.5q16 0 33.5 1t34.5 1h43t36 -4q63 -18 70 -92q2 -31 -11 -55.5t-42 -36.5q-23 -12 -46.5 -18.5 t-45.5 -14.5q-20 -4 -31 -4q4 -78 -16.5 -132.5t-55.5 -101.5q68 6 132.5 17.5t129.5 36.5q59 31 102.5 20.5t68 -43.5t31.5 -80t-3 -91t-37.5 -74.5t-72.5 -32.5q-59 -2 -126 4t-134.5 9t-135 -4t-131.5 -34q-10 -4 -27.5 -1t-31.5 -1q-51 -12 -97.5 -5t-93.5 19 q-41 16 -67.5 46t-30.5 75z" />
<glyph unicode="&#xa4;" horiz-adv-x="1062" d="M61 444q6 18 18.5 39t24.5 39q10 16 22.5 33.5t23.5 34.5q-53 100 -49.5 193.5t81.5 183.5q-16 23 -32.5 42t-32.5 40q-8 10 -15.5 19t-13.5 17q-41 61 -2 117q18 25 51 36t66 -1q20 -10 38.5 -24.5t34.5 -28.5q16 -16 29.5 -37t28.5 -37q57 43 108.5 61.5t98.5 17.5 t91 -17.5t89 -43.5q16 23 30.5 43.5t32.5 38.5q27 31 72 58q61 25 111 -25q49 -45 22 -110q-6 -16 -18.5 -33t-22.5 -31q-25 -29 -49.5 -53.5t-48.5 -50.5q-10 -10 -14.5 -19.5t0.5 -25.5q12 -92 -12.5 -171t-80.5 -151q-6 -10 -11 -15t-9 -16v-12q12 -10 28.5 -23.5 t32.5 -29.5t33 -30.5t29 -33.5q20 -25 20 -53.5t-16 -52.5q-16 -27 -45 -39t-57 -6q-47 8 -80 45q-20 27 -43 50.5t-45 47.5q-6 6 -17.5 12.5t-15.5 3.5q-53 -16 -105.5 -16t-105.5 14q-20 -23 -36.5 -44t-37.5 -42q-14 -12 -28.5 -25.5t-30.5 -23.5q-33 -16 -69 -11t-58 30 q-49 53 -15 116zM406 716q0 -34 23.5 -40t82.5 45q41 33 66 84q29 57 -7 115q-18 35 -46.5 20.5t-54.5 -53.5t-45 -88t-19 -83z" />
<glyph unicode="&#xa5;" horiz-adv-x="1034" d="M43 543q-6 33 9.5 67.5t47.5 53.5q35 20 70 25t70 9h90q-41 55 -75 104.5t-65 96.5q-27 43 -48 87t-42 89q-10 23 -14 47.5t-6 48.5q-2 47 21.5 82t62.5 52q45 14 88 0.5t70 -56.5q23 -35 44 -72.5t42 -74.5q20 -41 40.5 -80t40.5 -78q4 -10 9.5 -15t11.5 -16 q33 49 68.5 114t77.5 123t92.5 101t111.5 54q33 4 64.5 -4.5t48.5 -36.5q33 -53 -10 -111q-25 -35 -52.5 -83t-56.5 -98t-56.5 -98.5t-52.5 -82.5q-8 -10 -12 -20.5t-12 -25.5q6 0 29.5 -1t50 -3t50 -3t28.5 -1q37 -6 59.5 -32.5t26.5 -57.5t-10.5 -60.5t-49.5 -43.5 q-23 -8 -64.5 -15.5t-85.5 -13.5t-86 -10t-65 -6q-10 -33 -23.5 -82t-23.5 -103.5t-15 -105.5t-1 -90q4 -45 -22.5 -76t-67.5 -43q-43 -10 -82 8.5t-58 56.5q-35 74 -22 148q2 18 4 52t5 71t5 71.5t6 53.5h-106q-14 0 -28.5 -1t-27.5 1q-39 4 -66.5 26.5t-37.5 57.5z" />
<glyph unicode="&#xad;" d="M49 602q0 39 20.5 61.5t50.5 35t63.5 16.5t62.5 6q55 4 110.5 3t108.5 -11q51 -8 86 -38t29 -83q-8 -31 -35 -51.5t-64 -22.5q-51 -4 -100 -6t-102 -6q-23 -2 -46.5 -5t-46.5 -5q-51 0 -94 26.5t-43 79.5z" />
<glyph unicode="&#xb1;" horiz-adv-x="718" d="M51 724q-4 24 4 48.5t31 42.5q20 16 45 25.5t47 17.5q23 8 45.5 12t46.5 9v53q0 47 26 77.5t69 37.5q41 6 72.5 -20t43.5 -73q4 -16 6.5 -32t6.5 -39q20 -4 38.5 -6.5t34.5 -6.5t31.5 -10t32.5 -16q27 -16 38 -43t5 -56q-8 -29 -30.5 -48t-55.5 -23q-23 -4 -44.5 -3 t-47.5 1q-2 -12 -2 -22.5t-5 -24.5q-4 -25 -8 -51.5t-12 -55.5q-12 -53 -66 -74q-27 -12 -52 -9t-44.5 17.5t-31 37t-9.5 51.5q0 27 1 52t3 52q0 4 -2 8t-2 13q-23 -4 -44 -9.5t-44 -7.5q-35 -4 -61 2q-29 10 -45.5 29.5t-20.5 43.5zM68 248q0 72 90 94q25 6 53 6 q80 4 155.5 1t153.5 -3q16 0 30.5 -1t31.5 -5q33 -8 53 -28.5t24 -49.5q2 -31 -16 -55.5t-53 -36.5q-37 -10 -76 -12q-68 -4 -134.5 -6t-133.5 -5q-41 0 -86 11q-43 8 -67.5 33.5t-24.5 56.5z" />
<glyph unicode="&#xd7;" horiz-adv-x="714" d="M66 585.5q-3 30.5 20 63.5q14 27 31.5 48.5t36.5 43.5q10 14 20 24.5t21 25.5q-12 12 -23.5 24t-21.5 23q-20 27 -26.5 54.5t7.5 57.5q18 33 45 45.5t62 10.5q16 -2 33.5 -8.5t33.5 -12.5q14 -6 25.5 -13t27.5 -18q10 8 21.5 16.5t21.5 18.5q25 16 48.5 34.5t48.5 35.5 q59 33 114 -4q35 -25 37 -67t-33 -75q-23 -23 -47 -45t-53 -45q23 -20 40 -35.5t36 -31.5q10 -10 19.5 -18.5t17.5 -18.5q29 -29 33 -61.5t-17 -61.5q-20 -29 -58 -39t-73 8q-23 10 -42 24.5t-42 28.5q-16 10 -30.5 20.5t-32.5 23.5q-23 -25 -43.5 -49.5t-42.5 -47.5 q-27 -29 -66 -53q-31 -16 -64.5 -11t-58.5 29q-23 25 -26 55.5z" />
<glyph unicode="&#xf7;" horiz-adv-x="720" d="M51 723q10 29 37 46t62 19q61 2 122.5 6.5t120 5.5t113.5 -5.5t104 -22.5q47 -16 62.5 -51t-4.5 -68q-18 -23 -44 -33t-59 -12q-59 -2 -121.5 -2t-119.5 -2q-63 2 -118.5 2t-103.5 25q-31 16 -45 41.5t-6 50.5zM268 469q0 37 30 63.5t69 24.5q37 -2 63.5 -29.5 t24.5 -62.5q0 -37 -29 -62.5t-70 -23.5t-65.5 26.5t-22.5 63.5zM270 922q0 37 32 64.5t73 25.5q37 -4 65.5 -31t24.5 -63q-2 -35 -31.5 -62t-66.5 -25q-37 0 -67 28t-30 63z" />
<glyph unicode="&#x2000;" horiz-adv-x="831" />
<glyph unicode="&#x2001;" horiz-adv-x="1662" />
<glyph unicode="&#x2002;" horiz-adv-x="831" />
<glyph unicode="&#x2003;" horiz-adv-x="1662" />
<glyph unicode="&#x2004;" horiz-adv-x="554" />
<glyph unicode="&#x2005;" horiz-adv-x="415" />
<glyph unicode="&#x2006;" horiz-adv-x="277" />
<glyph unicode="&#x2007;" horiz-adv-x="277" />
<glyph unicode="&#x2008;" horiz-adv-x="207" />
<glyph unicode="&#x2009;" horiz-adv-x="332" />
<glyph unicode="&#x200a;" horiz-adv-x="92" />
<glyph unicode="&#x2010;" d="M49 602q0 39 20.5 61.5t50.5 35t63.5 16.5t62.5 6q55 4 110.5 3t108.5 -11q51 -8 86 -38t29 -83q-8 -31 -35 -51.5t-64 -22.5q-51 -4 -100 -6t-102 -6q-23 -2 -46.5 -5t-46.5 -5q-51 0 -94 26.5t-43 79.5z" />
<glyph unicode="&#x2011;" d="M49 602q0 39 20.5 61.5t50.5 35t63.5 16.5t62.5 6q55 4 110.5 3t108.5 -11q51 -8 86 -38t29 -83q-8 -31 -35 -51.5t-64 -22.5q-51 -4 -100 -6t-102 -6q-23 -2 -46.5 -5t-46.5 -5q-51 0 -94 26.5t-43 79.5z" />
<glyph unicode="&#x2012;" d="M49 602q0 39 20.5 61.5t50.5 35t63.5 16.5t62.5 6q55 4 110.5 3t108.5 -11q51 -8 86 -38t29 -83q-8 -31 -35 -51.5t-64 -22.5q-51 -4 -100 -6t-102 -6q-23 -2 -46.5 -5t-46.5 -5q-51 0 -94 26.5t-43 79.5z" />
<glyph unicode="&#x2013;" horiz-adv-x="1113" d="M49 602q0 39 39.5 61.5t97 35t122 16.5t120.5 6q106 4 213 3t209 -11q98 -8 165.5 -38t55.5 -83q-15 -31 -67 -51.5t-123 -22.5q-98 -4 -192.5 -6t-196.5 -6q-44 -2 -89.5 -5t-89.5 -5q-98 0 -181 26.5t-83 79.5z" />
<glyph unicode="&#x2014;" horiz-adv-x="2137" d="M49 602q0 39 79 61.5t194.5 35t244.5 16.5t241 6q211 4 425 3t418 -11q196 -8 331 -38t112 -83q-31 -31 -135 -51.5t-247 -22.5q-196 -4 -384.5 -6t-392.5 -6q-89 -2 -179.5 -5t-178.5 -5q-197 0 -362.5 26.5t-165.5 79.5z" />
<glyph unicode="&#x2018;" horiz-adv-x="311" d="M57 1362q8 35 35 55.5t62 18.5q33 0 59.5 -21.5t32.5 -56.5q4 -35 6 -65.5t2 -61.5q-2 -70 -72 -90q-33 -10 -62.5 5t-43.5 44q-35 84 -19 172z" />
<glyph unicode="&#x2019;" horiz-adv-x="311" d="M57 1362q8 35 35 55.5t62 18.5q33 0 59.5 -21.5t32.5 -56.5q4 -35 6 -65.5t2 -61.5q-2 -70 -72 -90q-33 -10 -62.5 5t-43.5 44q-35 84 -19 172z" />
<glyph unicode="&#x201c;" horiz-adv-x="561" d="M57 1362q8 35 35 55.5t62 18.5q33 0 59.5 -21.5t32.5 -56.5q4 -35 6 -65.5t2 -61.5q-2 -70 -72 -90q-33 -10 -62.5 5t-43.5 44q-35 84 -19 172zM299 1362q8 35 34.5 55.5t61.5 18.5q33 0 59.5 -21.5t32.5 -56.5q4 -35 6.5 -65.5t2.5 -61.5q-2 -70 -72 -90 q-33 -10 -62.5 5t-44.5 44q-35 84 -18 172z" />
<glyph unicode="&#x201d;" horiz-adv-x="561" d="M57 1362q8 35 35 55.5t62 18.5q33 0 59.5 -21.5t32.5 -56.5q4 -35 6 -65.5t2 -61.5q-2 -70 -72 -90q-33 -10 -62.5 5t-43.5 44q-35 84 -19 172zM299 1362q8 35 34.5 55.5t61.5 18.5q33 0 59.5 -21.5t32.5 -56.5q4 -35 6.5 -65.5t2.5 -61.5q-2 -70 -72 -90 q-33 -10 -62.5 5t-44.5 44q-35 84 -18 172z" />
<glyph unicode="&#x202f;" horiz-adv-x="332" />
<glyph unicode="&#x205f;" horiz-adv-x="415" />
<glyph unicode="&#x20ac;" horiz-adv-x="1325" d="M43 778q-4 41 16.5 78t59.5 51q31 10 62.5 15.5t60.5 9.5q31 8 62.5 10t66.5 6q18 25 26 51q43 82 95.5 155t125.5 126q96 76 214 90t219.5 -24.5t167 -123.5t59.5 -206q-4 -74 -39 -116t-78 -51t-86 11.5t-61 71.5q-4 12 -10.5 23.5t-10.5 21.5q-47 80 -114.5 77 t-116.5 -91q29 -4 54.5 -7.5t49.5 -7.5q12 -4 26.5 -11t27.5 -11q39 -23 54 -57.5t1 -75.5q-12 -35 -43 -55.5t-70 -16.5q-41 6 -82 9t-82 7q-14 2 -22 -5t-6 -32h41q10 0 19 1t20 -1q47 -2 78.5 -30.5t35.5 -75.5t-19.5 -83t-66.5 -52q-16 -4 -31.5 -7t-31.5 -8 q20 -72 54 -85t71 6.5t72.5 61.5t60.5 81q18 25 35.5 52.5t38 47t47 26.5t63.5 -9q47 -16 68.5 -61.5t15.5 -104.5q-4 -12 -7 -28.5t-9 -27.5q-43 -104 -99.5 -189t-142.5 -148q-109 -78 -218.5 -72t-211.5 100q-53 47 -93 104.5t-73 125.5q-8 16 -14 31.5t-17 33.5 q-27 -6 -50 -12t-46 -10q-29 -10 -53.5 -9.5t-50.5 15.5q-29 16 -46.5 41.5t-22.5 55.5t3 59.5t31 54.5q29 31 62.5 45t70.5 24q16 2 31.5 6.5t33.5 28.5h-51q-29 -4 -56.5 -7t-55.5 -3q-45 2 -76 30.5t-37 69.5z" />
<glyph unicode="&#x2122;" horiz-adv-x="1173" d="M49 1489q20 31 74 27q25 -2 50.5 -3.5t49.5 -3.5h240q16 0 32.5 2t32.5 5h18.5t18.5 -3q31 -8 41 -34q4 -27 -22 -39q-16 -6 -29.5 -11.5t-30.5 -9.5q-31 -4 -61.5 -6t-59.5 -6q-6 0 -10 -2q12 -78 11 -153.5t-1 -153.5v-18.5t-4 -18.5q-4 -18 -22.5 -30.5t-42.5 -14.5 q-23 -2 -43.5 8t-28.5 27q-6 12 -9 25.5t-5 25.5q-10 55 -16.5 110.5t-2.5 110.5q0 16 2 30.5t5 30.5v17q-20 4 -41 6t-43 6q-45 6 -74 23q-45 23 -29 53zM584 1288q0 39 7 75t23 73q10 25 27 41q25 29 64.5 27.5t62.5 -29.5q10 -12 15 -24.5t12 -27.5q2 -4 6 -16q4 4 6 8 t6 8q18 27 42 50.5t54 44.5q18 12 38 20t44 12q74 10 113 -39q16 -20 20 -47q4 -29 4 -54.5t-4 -51.5q-12 -72 -24.5 -139.5t-18.5 -137.5q-4 -39 -43 -47q-25 -6 -49 1t-35 28q-16 31 -16 72q-4 68 4 118t27 117q14 45 13 60.5t-10 8.5t-25.5 -27.5t-32 -46.5t-29 -49.5 t-15.5 -33.5q-6 -16 -10 -30.5t-8 -30.5q-10 -29 -45 -37q-49 -6 -72 24q-6 10 -8 18.5t-6 18.5q-4 8 -5 16.5t-5 18.5q-4 20 -9 31q-2 -2 -2 -3t-2 -3q0 -25 -1 -49.5t1 -48t9.5 -46t23.5 -43.5q23 -23 17.5 -43t-23.5 -30.5t-45 -6.5t-45 35q-6 10 -11.5 16.5t-9.5 14.5 q-18 45 -25 91t-5 93z" />
<glyph unicode="&#x25fc;" horiz-adv-x="1392" d="M0 0v1393h1393v-1393h-1393z" />
</font>
</defs>
</svg>
