<svg id="text_devider_2" data-name="text devider 2" xmlns="http://www.w3.org/2000/svg" viewBox="0 0 801.56 71.54"><defs><style>.cls-1{fill:none;stroke:#d99494;stroke-width:6px;}.cls-2{fill:#d99494;}</style></defs><line class="cls-1" x1="15.04" y1="36.92" x2="340.42" y2="35.54"/><path class="cls-2" d="M2638.43,845.4c3.93-1.76,5.08-4.71,2.74-6.7-4-3.61-10-2.9-11.71-1.71.3-1.89-2.42-3.37-4.52-3.92-2.76-.72-5.76-1-8.54,2.5-3.3,5.28-8.74,7.63-14.94,6.89a21.47,21.47,0,0,0,0,6.2c6.19-.8,11.65,1.51,15,6.76,2.8,3.46,5.8,3.17,8.55,2.43,2.1-.57,4.81-2.07,4.49-4,1.69,1.18,7.76,1.83,11.69-1.81C2643.55,850.07,2642.38,847.12,2638.43,845.4Z" transform="translate(-2428.02 -809.31)"/><path class="cls-2" d="M2439,846.58c-6.65.69-13,2.38-10.39,6.45,1.65,2.61,7.91,1.06,10,0-1.41.74-3.05,2.93-1.51,4.45,1.94,2.16,8.24.51,16.24-2.52,12.74-5.86,23.23-6.25,31.52-4.77-13.72,1.73-21.57,10-17.73,13.93,4.34,4.87,13.34,2.88,16.23.82-1.17,2.92,2.18,4.75,5,5.27,3.7.67,7.93.61,13.26-5.07,8.39-10.51,14.23-11,18.7-12.77s6.21,1.12,2.22,2.12c-12.88,5.22-13.3,9.86-12.57,12.71s6.78,4.55,10.91,2.74c-2,5.36-.65,9,6,10.6,8.54,1.66,12.77-3.08,13.54-10.66,3.7,4.37,11.54,2,11.9-5.09.72-10.4,3.52-11,6.91-14s7.58-2.72,4.49-.33c-6.9,5.71-6.29,12-1.86,13.35s7.93.53,11.73-3.12c2.17,4.51,11.08,4.16,10.62-2.94,1.22-11.82,9.65-13.52,12.17-13.35" transform="translate(-2428.02 -809.31)"/><path class="cls-2" d="M2439,845.91c-6.65-.63-13-2.27-10.44-6.36,1.63-2.62,7.91-1.13,10-.06-1.41-.73-3.07-2.91-1.54-4.44,1.91-2.18,8.23-.58,16.26,2.38,12.79,5.76,23.28,6.05,31.55,4.5-13.73-1.61-21.65-9.81-17.84-13.77,4.29-4.91,13.32-3,16.22-1-1.19-2.91,2.14-4.77,5-5.31,3.69-.71,7.92-.69,13.3,5,8.48,10.44,14.32,10.9,18.81,12.61s6.19-1.17,2.2-2.15c-12.93-5.1-13.39-9.75-12.68-12.59s6.74-4.62,10.88-2.84c-2-5.35-.72-9,5.92-10.65,8.52-1.73,12.79,3,13.62,10.54,3.67-4.39,11.53-2.09,11.95,5,.81,10.4,3.61,11,7,14s7.6,2.66,4.49.3c-6.94-5.66-6.39-12-2-13.33s7.93-.6,11.76,3c2.12-4.54,11-4.26,10.63,2.84,1.33,11.81,9.77,13.44,12.29,13.24" transform="translate(-2428.02 -809.31)"/><path class="cls-2" d="M2717.69,845.13c3.39.32,6.63,1.16,5.33,3.25-.83,1.34-4,.57-5.1,0,.73.37,1.57,1.48.79,2.27-1,1.11-4.2.29-8.3-1.22-6.53-2.94-11.88-3.09-16.11-2.3,7,.83,11,5,9.11,7-2.19,2.5-6.8,1.53-8.28.49.61,1.48-1.1,2.43-2.53,2.71-1.89.36-4,.35-6.8-2.53-4.33-5.34-7.31-5.57-9.6-6.45s-3.16.6-1.12,1.1c6.6,2.61,6.83,5,6.47,6.43s-3.44,2.36-5.56,1.45c1,2.73.37,4.58-3,5.44-4.35.88-6.53-1.52-6.95-5.38-1.87,2.24-5.89,1.07-6.1-2.55-.42-5.31-1.85-5.6-3.59-7.14s-3.88-1.35-2.3-.15c3.55,2.89,3.27,6.12,1,6.81s-4.05.31-6-1.54c-1.09,2.31-5.64,2.17-5.43-1.46-.68-6-5-6.85-6.28-6.76" transform="translate(-2428.02 -809.31)"/><path class="cls-2" d="M2717.69,844.79c3.39-.35,6.62-1.22,5.3-3.29-.84-1.34-4-.55-5.1,0,.72-.38,1.56-1.5.77-2.28-1-1.1-4.2-.26-8.29,1.29-6.5,3-11.86,3.19-16.09,2.44,7-.89,11-5.11,9-7.12-2.21-2.48-6.81-1.47-8.29-.41.6-1.49-1.11-2.43-2.55-2.69-1.89-.35-4-.32-6.77,2.59-4.28,5.36-7.26,5.63-9.55,6.52s-3.16-.58-1.13-1.09c6.58-2.66,6.79-5,6.42-6.49s-3.46-2.32-5.57-1.4c1-2.74.33-4.58-3.07-5.41-4.36-.85-6.52,1.57-6.91,5.44-1.89-2.23-5.89-1-6.08,2.6-.36,5.31-1.79,5.61-3.52,7.17s-3.87,1.38-2.3.16c3.53-2.91,3.22-6.14.95-6.81s-4.05-.27-6,1.59c-1.1-2.3-5.65-2.12-5.42,1.5-.62,6-4.93,6.9-6.21,6.82" transform="translate(-2428.02 -809.31)"/><path class="cls-2" d="M2805.66,844.69c3.94-1.76,5.09-4.71,2.74-6.7-4-3.61-10-2.9-11.71-1.71.31-1.89-2.41-3.37-4.52-3.92-2.75-.72-5.76-1-8.53,2.5-3.31,5.28-8.74,7.63-14.94,6.89a9,9,0,0,0-.22,3.1,9.28,9.28,0,0,0,.24,3.1c6.2-.8,11.65,1.51,15,6.76,2.81,3.46,5.81,3.17,8.56,2.43,2.1-.57,4.81-2.07,4.48-4,1.7,1.18,7.76,1.83,11.7-1.81C2810.79,849.36,2809.61,846.42,2805.66,844.69Z" transform="translate(-2428.02 -809.31)"/><line class="cls-1" x1="786.52" y1="34.62" x2="461.14" y2="36"/><path class="cls-2" d="M3019.17,844.76c-3.94,1.76-5.09,4.71-2.74,6.7,4,3.61,10,2.9,11.71,1.71-.31,1.89,2.41,3.37,4.52,3.92,2.75.72,5.75,1,8.53-2.5,3.31-5.28,8.74-7.63,14.94-6.89a8.77,8.77,0,0,0,.21-3.1,9,9,0,0,0-.23-3.1c-6.2.8-11.65-1.51-15-6.76-2.81-3.46-5.81-3.17-8.56-2.43-2.1.57-4.81,2.07-4.49,4-1.69-1.18-7.75-1.83-11.69,1.81C3014,840.09,3015.22,843,3019.17,844.76Z" transform="translate(-2428.02 -809.31)"/><path class="cls-2" d="M3218.56,843.58c6.64-.69,13-2.39,10.39-6.45-1.65-2.61-7.92-1.06-10,0,1.41-.74,3.05-2.93,1.51-4.45-1.93-2.17-8.24-.51-16.24,2.52-12.74,5.86-23.22,6.25-31.51,4.77,13.71-1.73,21.56-10,17.72-13.93-4.33-4.87-13.34-2.88-16.23-.82,1.17-2.92-2.18-4.75-5-5.27-3.69-.67-7.92-.62-13.26,5.07-8.39,10.51-14.22,11-18.7,12.77s-6.2-1.12-2.21-2.12c12.87-5.22,13.3-9.86,12.57-12.71s-6.79-4.56-10.91-2.74c2-5.36.64-9-6-10.6-8.54-1.66-12.77,3.08-13.53,10.65-3.7-4.36-11.55-2-11.9,5.1-.73,10.4-3.52,11-6.92,14s-7.57,2.72-4.49.33c6.9-5.72,6.3-12,1.86-13.35s-7.93-.53-11.73,3.12c-2.16-4.51-11.08-4.16-10.61,2.94-1.23,11.82-9.66,13.52-12.17,13.35" transform="translate(-2428.02 -809.31)"/><path class="cls-2" d="M3218.56,844.24c6.65.64,13,2.28,10.44,6.37-1.63,2.62-7.9,1.13-10,.06,1.41.73,3.07,2.9,1.55,4.44-1.92,2.18-8.24.58-16.26-2.38-12.79-5.76-23.28-6.05-31.56-4.51,13.73,1.62,21.65,9.82,17.85,13.78-4.3,4.91-13.32,3-16.23,1,1.2,2.91-2.14,4.77-4.95,5.31-3.69.71-7.92.68-13.31-5-8.47-10.44-14.31-10.9-18.8-12.61s-6.2,1.17-2.2,2.15c12.92,5.1,13.39,9.74,12.68,12.59s-6.75,4.62-10.89,2.84c2,5.34.72,9-5.92,10.65-8.52,1.73-12.79-3-13.62-10.54-3.66,4.39-11.53,2.09-11.94-5-.81-10.4-3.62-11-7-14s-7.59-2.66-4.49-.3c7,5.66,6.4,12,2,13.33s-7.92.6-11.75-3c-2.13,4.54-11,4.26-10.64-2.85-1.32-11.81-9.77-13.43-12.28-13.24" transform="translate(-2428.02 -809.31)"/><path class="cls-2" d="M2939.91,845c-3.4-.33-6.63-1.16-5.34-3.25.84-1.34,4-.57,5.1,0-.72-.37-1.57-1.48-.79-2.27,1-1.11,4.21-.29,8.31,1.22,6.52,2.94,11.88,3.09,16.11,2.3-7-.83-11.06-5-9.11-7,2.19-2.5,6.8-1.53,8.28-.49-.61-1.48,1.09-2.43,2.53-2.71,1.88-.36,4-.35,6.79,2.53,4.33,5.33,7.31,5.57,9.6,6.44s3.17-.6,1.13-1.09c-6.6-2.61-6.84-5-6.48-6.43s3.45-2.36,5.56-1.45c-1-2.73-.37-4.58,3-5.44,4.35-.88,6.53,1.52,7,5.38,1.87-2.24,5.88-1.07,6.1,2.55.41,5.31,1.84,5.6,3.59,7.13s3.88,1.36,2.29.15c-3.54-2.88-3.26-6.11-1-6.8s4-.31,6,1.54c1.08-2.31,5.64-2.17,5.43,1.45.68,6,5,6.86,6.27,6.77" transform="translate(-2428.02 -809.31)"/><path class="cls-2" d="M2939.91,845.37c-3.39.35-6.62,1.22-5.31,3.29.85,1.33,4.05.54,5.1,0-.72.38-1.55,1.5-.77,2.27,1,1.11,4.21.27,8.29-1.28,6.51-3,11.86-3.19,16.09-2.44-7,.89-11,5.11-9,7.11,2.22,2.49,6.82,1.48,8.29.42-.6,1.49,1.11,2.43,2.55,2.69,1.89.35,4.05.32,6.78-2.59,4.28-5.36,7.26-5.63,9.54-6.52s3.17.58,1.13,1.09c-6.57,2.66-6.79,5-6.41,6.49s3.46,2.32,5.57,1.4c-1,2.73-.33,4.58,3.06,5.41,4.36.84,6.52-1.57,6.91-5.44,1.89,2.23,5.9,1,6.08-2.6.37-5.31,1.8-5.61,3.53-7.17s3.87-1.38,2.29-.16c-3.52,2.91-3.21,6.14-.95,6.81s4,.27,6-1.59c1.11,2.3,5.66,2.12,5.42-1.5.63-6,4.93-6.9,6.22-6.82" transform="translate(-2428.02 -809.31)"/><path class="cls-2" d="M2851.93,845.47c-3.93,1.75-5.08,4.71-2.74,6.7,4,3.61,10,2.9,11.71,1.71-.3,1.89,2.42,3.37,4.52,3.92,2.76.72,5.76,1,8.54-2.5,3.3-5.28,8.74-7.64,14.94-6.89a21.47,21.47,0,0,0,0-6.2c-6.19.8-11.65-1.51-15-6.76-2.81-3.46-5.81-3.17-8.56-2.43-2.1.57-4.81,2.07-4.49,4-1.69-1.18-7.75-1.83-11.69,1.8C2846.81,840.79,2848,843.74,2851.93,845.47Z" transform="translate(-2428.02 -809.31)"/></svg>